solid GEEETech_Prusa_i3x_Acrylic_-_Front_Power_Switch
facet normal 0.8166465545259224 -4.408621934156377e-16 -0.5771381160354424
  outer loop
    vertex 1036.150415421333 967.0831195347454 -259.39290921397844
    vertex 1037.3046916534038 907.9827195347455 -257.75961610492675
    vertex 1036.1504154213326 907.9827195347455 -259.3929092139787
  endloop
endfacet
facet normal 0.8166465545259224 -4.408621934156377e-16 -0.5771381160354424
  outer loop
    vertex 1037.3046916534038 907.9827195347455 -257.75961610492675
    vertex 1036.150415421333 967.0831195347454 -259.39290921397844
    vertex 1037.3046916534038 967.0831195347454 -257.7596161049267
  endloop
endfacet
facet normal 0.8166465545259161 5.812327867653936e-17 -0.5771381160354515
  outer loop
    vertex 1045.4711571986627 893.5827195347454 -263.5309972652816
    vertex 1046.4403452369208 896.5827195347454 -262.15960270626573
    vertex 1077.7908916966478 893.5827195347454 -217.79879021182964
  endloop
endfacet
facet normal 0.8166465545259161 5.812327867653936e-17 -0.5771381160354515
  outer loop
    vertex 1046.4403452369208 896.5827195347454 -262.15960270626573
    vertex 1045.4711571986627 893.5827195347454 -263.5309972652816
    vertex 1045.4711571986627 967.0831195347454 -263.5309972652813
  endloop
endfacet
facet normal 0.8166465545259161 5.812327867653936e-17 -0.5771381160354515
  outer loop
    vertex 1046.4403452369208 896.5827195347454 -262.15960270626573
    vertex 1045.4711571986627 967.0831195347454 -263.5309972652813
    vertex 1046.4403452369213 964.0831195347455 -262.15960270626573
  endloop
endfacet
facet normal 0.8166465545259161 5.812327867653936e-17 -0.5771381160354515
  outer loop
    vertex 1046.4403452369213 964.0831195347455 -262.15960270626573
    vertex 1045.4711571986627 967.0831195347454 -263.5309972652813
    vertex 1076.636615464577 964.0831195347455 -219.4320833208815
  endloop
endfacet
facet normal 0.8166465545259161 5.812327867653936e-17 -0.5771381160354515
  outer loop
    vertex 1077.7908916966478 893.5827195347454 -217.79879021182964
    vertex 1076.636615464577 896.5827195347454 -219.4320833208815
    vertex 1077.7908916966478 967.0831195347454 -217.79879021182964
  endloop
endfacet
facet normal 0.8166465545259161 5.812327867653936e-17 -0.5771381160354515
  outer loop
    vertex 1076.636615464577 896.5827195347454 -219.4320833208815
    vertex 1077.7908916966478 893.5827195347454 -217.79879021182964
    vertex 1046.4403452369208 896.5827195347454 -262.15960270626573
  endloop
endfacet
facet normal 0.8166465545259161 5.812327867653936e-17 -0.5771381160354515
  outer loop
    vertex 1077.7908916966478 967.0831195347454 -217.79879021182964
    vertex 1076.636615464577 896.5827195347454 -219.4320833208815
    vertex 1076.636615464577 964.0831195347455 -219.4320833208815
  endloop
endfacet
facet normal 0.8166465545259161 5.812327867653936e-17 -0.5771381160354515
  outer loop
    vertex 1077.7908916966478 967.0831195347454 -217.79879021182964
    vertex 1076.636615464577 964.0831195347455 -219.4320833208815
    vertex 1045.4711571986627 967.0831195347454 -263.5309972652813
  endloop
endfacet
facet normal 0.5771381160354558 -1.2712028112733948e-15 0.8166465545259128
  outer loop
    vertex 1038.3145287908264 914.8327195347454 -260.9223252214726
    vertex 1038.3632252648051 945.3801862058158 -260.9567398542093
    vertex 1038.3145287908264 945.8331195347453 -260.92232522147253
  endloop
endfacet
facet normal 0.5771381160354558 -1.2712028112733948e-15 0.8166465545259128
  outer loop
    vertex 1038.3632252648051 945.3801862058158 -260.9567398542093
    vertex 1038.3145287908264 914.8327195347454 -260.9223252214726
    vertex 1038.3632252648054 915.2856528636748 -260.95673985420933
  endloop
endfacet
facet normal 0.5771381160354558 -1.2712028112733948e-15 0.8166465545259128
  outer loop
    vertex 1038.3632252648051 945.3801862058158 -260.9567398542093
    vertex 1038.3632252648054 915.2856528636748 -260.95673985420933
    vertex 1038.505996102515 944.9581195347454 -261.05763845207133
  endloop
endfacet
facet normal 0.5771381160354558 -1.2712028112733948e-15 0.8166465545259128
  outer loop
    vertex 1038.505996102515 944.9581195347454 -261.05763845207133
    vertex 1038.3632252648054 915.2856528636748 -260.95673985420933
    vertex 1038.505996102515 915.7077195347454 -261.05763845207133
  endloop
endfacet
facet normal 0.5771381160354558 -1.2712028112733948e-15 0.8166465545259128
  outer loop
    vertex 1038.505996102515 944.9581195347454 -261.05763845207133
    vertex 1038.505996102515 915.7077195347454 -261.05763845207133
    vertex 1038.7331117073054 944.5956826676688 -261.21814494235724
  endloop
endfacet
facet normal 0.5771381160354558 -1.2712028112733948e-15 0.8166465545259128
  outer loop
    vertex 1038.7331117073054 944.5956826676688 -261.21814494235724
    vertex 1038.505996102515 915.7077195347454 -261.05763845207133
    vertex 1038.7331117073056 916.0701564018219 -261.21814494235724
  endloop
endfacet
facet normal 0.5771381160354558 -1.2712028112733948e-15 0.8166465545259128
  outer loop
    vertex 1038.7331117073054 944.5956826676688 -261.21814494235724
    vertex 1038.7331117073056 916.0701564018219 -261.21814494235724
    vertex 1039.0290945260365 944.3175750781226 -261.42732107300355
  endloop
endfacet
facet normal 0.5771381160354558 -1.2712028112733948e-15 0.8166465545259128
  outer loop
    vertex 1039.0290945260365 944.3175750781226 -261.42732107300355
    vertex 1038.7331117073056 916.0701564018219 -261.21814494235724
    vertex 1039.0290945260367 916.3482639913682 -261.4273210730036
  endloop
endfacet
facet normal 0.5771381160354558 -1.2712028112733948e-15 0.8166465545259128
  outer loop
    vertex 1039.0290945260365 944.3175750781226 -261.42732107300355
    vertex 1039.0290945260367 916.3482639913682 -261.4273210730036
    vertex 1039.3737738187465 944.1427493387395 -261.67091183638655
  endloop
endfacet
facet normal 0.5771381160354558 -1.2712028112733948e-15 0.8166465545259128
  outer loop
    vertex 1039.3737738187465 944.1427493387395 -261.67091183638655
    vertex 1039.0290945260367 916.3482639913682 -261.4273210730036
    vertex 1039.3737738187467 916.5230897307512 -261.6709118363866
  endloop
endfacet
facet normal 0.5771381160354558 -1.2712028112733948e-15 0.8166465545259128
  outer loop
    vertex 1039.3737738187465 944.1427493387395 -261.67091183638655
    vertex 1039.3737738187467 916.5230897307512 -261.6709118363866
    vertex 1039.7436602612468 944.0831195347454 -261.9323169245346
  endloop
endfacet
facet normal 0.5771381160354558 -1.2712028112733948e-15 0.8166465545259128
  outer loop
    vertex 1039.7436602612468 944.0831195347454 -261.9323169245346
    vertex 1039.3737738187467 916.5230897307512 -261.6709118363866
    vertex 1039.7436602612468 916.5827195347454 -261.9323169245346
  endloop
endfacet
facet normal 0.5771381160354558 -1.2712028112733948e-15 0.8166465545259128
  outer loop
    vertex 1039.7436602612468 944.0831195347454 -261.9323169245346
    vertex 1039.7436602612468 916.5827195347454 -261.9323169245346
    vertex 1040.1135467037468 944.1427493387395 -262.19372201268254
  endloop
endfacet
facet normal 0.5771381160354558 -1.2712028112733948e-15 0.8166465545259128
  outer loop
    vertex 1040.1135467037468 944.1427493387395 -262.19372201268254
    vertex 1039.7436602612468 916.5827195347454 -261.9323169245346
    vertex 1040.113546703747 916.5230897307512 -262.1937220126826
  endloop
endfacet
facet normal 0.5771381160354558 -1.2712028112733948e-15 0.8166465545259128
  outer loop
    vertex 1040.1135467037468 944.1427493387395 -262.19372201268254
    vertex 1040.113546703747 916.5230897307512 -262.1937220126826
    vertex 1040.458225996457 944.3175750781226 -262.43731277606554
  endloop
endfacet
facet normal 0.5771381160354558 -1.2712028112733948e-15 0.8166465545259128
  outer loop
    vertex 1040.458225996457 944.3175750781226 -262.43731277606554
    vertex 1040.113546703747 916.5230897307512 -262.1937220126826
    vertex 1040.458225996457 916.3482639913682 -262.4373127760656
  endloop
endfacet
facet normal 0.5771381160354558 -1.2712028112733948e-15 0.8166465545259128
  outer loop
    vertex 1040.458225996457 944.3175750781226 -262.43731277606554
    vertex 1040.458225996457 916.3482639913682 -262.4373127760656
    vertex 1040.754208815188 944.5956826676688 -262.64648890671185
  endloop
endfacet
facet normal 0.5771381160354558 -1.2712028112733948e-15 0.8166465545259128
  outer loop
    vertex 1040.754208815188 944.5956826676688 -262.64648890671185
    vertex 1040.458225996457 916.3482639913682 -262.4373127760656
    vertex 1040.7542088151881 916.0701564018219 -262.6464889067119
  endloop
endfacet
facet normal 0.5771381160354558 -1.2712028112733948e-15 0.8166465545259128
  outer loop
    vertex 1040.754208815188 944.5956826676688 -262.64648890671185
    vertex 1040.7542088151881 916.0701564018219 -262.6464889067119
    vertex 1040.9813244199786 944.9581195347454 -262.8069953969978
  endloop
endfacet
facet normal 0.5771381160354558 -1.2712028112733948e-15 0.8166465545259128
  outer loop
    vertex 1040.9813244199786 944.9581195347454 -262.8069953969978
    vertex 1040.7542088151881 916.0701564018219 -262.6464889067119
    vertex 1040.9813244199788 915.7077195347454 -262.8069953969978
  endloop
endfacet
facet normal 0.5771381160354558 -1.2712028112733948e-15 0.8166465545259128
  outer loop
    vertex 1040.9813244199786 944.9581195347454 -262.8069953969978
    vertex 1040.9813244199788 915.7077195347454 -262.8069953969978
    vertex 1041.1240952576882 945.3801862058158 -262.9078939948598
  endloop
endfacet
facet normal 0.5771381160354558 -1.2712028112733948e-15 0.8166465545259128
  outer loop
    vertex 1041.1240952576882 945.3801862058158 -262.9078939948598
    vertex 1040.9813244199788 915.7077195347454 -262.8069953969978
    vertex 1041.1240952576884 915.2856528636748 -262.9078939948599
  endloop
endfacet
facet normal 0.5771381160354558 -1.2712028112733948e-15 0.8166465545259128
  outer loop
    vertex 1041.1240952576882 945.3801862058158 -262.9078939948598
    vertex 1041.1240952576884 915.2856528636748 -262.9078939948599
    vertex 1041.172791731667 945.8331195347453 -262.94230862759656
  endloop
endfacet
facet normal 0.5771381160354558 -1.2712028112733948e-15 0.8166465545259128
  outer loop
    vertex 1041.172791731667 945.8331195347453 -262.94230862759656
    vertex 1041.1240952576884 915.2856528636748 -262.9078939948599
    vertex 1041.172791731667 914.8327195347454 -262.9423086275966
  endloop
endfacet
facet normal 0.5771381160354558 -1.2712028112733948e-15 0.8166465545259128
  outer loop
    vertex 1044.3168809665915 893.5827195347454 -265.16429037433323
    vertex 1039.4170016394362 907.9827195347455 -261.70146167812004
    vertex 1039.4170016394362 893.5827195347454 -261.70146167812004
  endloop
endfacet
facet normal 0.5771381160354558 -1.2712028112733948e-15 0.8166465545259128
  outer loop
    vertex 1039.4170016394362 907.9827195347455 -261.70146167812004
    vertex 1044.3168809665915 893.5827195347454 -265.16429037433323
    vertex 1039.7436602612468 913.0827195347454 -261.9323169245346
  endloop
endfacet
facet normal 0.5771381160354558 -1.2712028112733948e-15 0.8166465545259128
  outer loop
    vertex 1039.7436602612468 913.0827195347454 -261.9323169245346
    vertex 1044.3168809665915 893.5827195347454 -265.16429037433323
    vertex 1040.113546703747 913.1423493387396 -262.1937220126826
  endloop
endfacet
facet normal 0.5771381160354558 -1.2712028112733948e-15 0.8166465545259128
  outer loop
    vertex 1040.113546703747 913.1423493387396 -262.1937220126826
    vertex 1044.3168809665915 893.5827195347454 -265.16429037433323
    vertex 1040.458225996457 913.3171750781227 -262.4373127760656
  endloop
endfacet
facet normal 0.5771381160354558 -1.2712028112733948e-15 0.8166465545259128
  outer loop
    vertex 1040.458225996457 913.3171750781227 -262.4373127760656
    vertex 1044.3168809665915 893.5827195347454 -265.16429037433323
    vertex 1040.7542088151881 913.5952826676689 -262.6464889067119
  endloop
endfacet
facet normal 0.5771381160354558 -1.2712028112733948e-15 0.8166465545259128
  outer loop
    vertex 1040.7542088151881 913.5952826676689 -262.6464889067119
    vertex 1044.3168809665915 893.5827195347454 -265.16429037433323
    vertex 1040.9813244199788 913.9577195347454 -262.8069953969978
  endloop
endfacet
facet normal 0.5771381160354558 -1.2712028112733948e-15 0.8166465545259128
  outer loop
    vertex 1040.9813244199788 913.9577195347454 -262.8069953969978
    vertex 1044.3168809665915 893.5827195347454 -265.16429037433323
    vertex 1041.1240952576884 914.3797862058159 -262.9078939948599
  endloop
endfacet
facet normal 0.5771381160354558 -1.2712028112733948e-15 0.8166465545259128
  outer loop
    vertex 1041.1240952576884 914.3797862058159 -262.9078939948599
    vertex 1044.3168809665915 893.5827195347454 -265.16429037433323
    vertex 1041.172791731667 914.8327195347454 -262.9423086275966
  endloop
endfacet
facet normal 0.5771381160354558 -1.2712028112733948e-15 0.8166465545259128
  outer loop
    vertex 1036.150415421333 967.0831195347454 -259.39290921397844
    vertex 1038.3632252648051 946.2860528636747 -260.9567398542093
    vertex 1044.3168809665917 967.0831195347454 -265.16429037433284
  endloop
endfacet
facet normal 0.5771381160354558 -1.2712028112733948e-15 0.8166465545259128
  outer loop
    vertex 1038.3632252648051 946.2860528636747 -260.9567398542093
    vertex 1036.150415421333 967.0831195347454 -259.39290921397844
    vertex 1038.3145287908264 945.8331195347453 -260.92232522147253
  endloop
endfacet
facet normal 0.5771381160354558 -1.2712028112733948e-15 0.8166465545259128
  outer loop
    vertex 1044.3168809665917 967.0831195347454 -265.16429037433284
    vertex 1038.3632252648051 946.2860528636747 -260.9567398542093
    vertex 1038.505996102515 946.7081195347453 -261.05763845207133
  endloop
endfacet
facet normal 0.5771381160354558 -1.2712028112733948e-15 0.8166465545259128
  outer loop
    vertex 1044.3168809665917 967.0831195347454 -265.16429037433284
    vertex 1038.505996102515 946.7081195347453 -261.05763845207133
    vertex 1038.7331117073054 947.0705564018218 -261.21814494235724
  endloop
endfacet
facet normal 0.5771381160354558 -1.2712028112733948e-15 0.8166465545259128
  outer loop
    vertex 1044.3168809665917 967.0831195347454 -265.16429037433284
    vertex 1038.7331117073054 947.0705564018218 -261.21814494235724
    vertex 1039.0290945260365 947.3486639913681 -261.42732107300355
  endloop
endfacet
facet normal 0.5771381160354558 -1.2712028112733948e-15 0.8166465545259128
  outer loop
    vertex 1044.3168809665917 967.0831195347454 -265.16429037433284
    vertex 1039.0290945260365 947.3486639913681 -261.42732107300355
    vertex 1039.3737738187465 947.5234897307511 -261.67091183638655
  endloop
endfacet
facet normal 0.5771381160354558 -1.2712028112733948e-15 0.8166465545259128
  outer loop
    vertex 1044.3168809665917 967.0831195347454 -265.16429037433284
    vertex 1039.3737738187465 947.5234897307511 -261.67091183638655
    vertex 1039.7436602612468 947.5831195347453 -261.9323169245346
  endloop
endfacet
facet normal 0.5771381160354558 -1.2712028112733948e-15 0.8166465545259128
  outer loop
    vertex 1044.3168809665917 967.0831195347454 -265.16429037433284
    vertex 1039.7436602612468 947.5831195347453 -261.9323169245346
    vertex 1040.1135467037468 947.5234897307511 -262.19372201268254
  endloop
endfacet
facet normal 0.5771381160354558 -1.2712028112733948e-15 0.8166465545259128
  outer loop
    vertex 1044.3168809665917 967.0831195347454 -265.16429037433284
    vertex 1040.1135467037468 947.5234897307511 -262.19372201268254
    vertex 1040.458225996457 947.3486639913681 -262.43731277606554
  endloop
endfacet
facet normal 0.5771381160354558 -1.2712028112733948e-15 0.8166465545259128
  outer loop
    vertex 1044.3168809665917 967.0831195347454 -265.16429037433284
    vertex 1040.458225996457 947.3486639913681 -262.43731277606554
    vertex 1040.754208815188 947.0705564018218 -262.64648890671185
  endloop
endfacet
facet normal 0.5771381160354558 -1.2712028112733948e-15 0.8166465545259128
  outer loop
    vertex 1044.3168809665917 967.0831195347454 -265.16429037433284
    vertex 1040.754208815188 947.0705564018218 -262.64648890671185
    vertex 1040.9813244199786 946.7081195347453 -262.8069953969978
  endloop
endfacet
facet normal 0.5771381160354558 -1.2712028112733948e-15 0.8166465545259128
  outer loop
    vertex 1044.3168809665917 967.0831195347454 -265.16429037433284
    vertex 1040.9813244199786 946.7081195347453 -262.8069953969978
    vertex 1041.1240952576882 946.2860528636747 -262.9078939948598
  endloop
endfacet
facet normal 0.5771381160354558 -1.2712028112733948e-15 0.8166465545259128
  outer loop
    vertex 1044.3168809665917 967.0831195347454 -265.16429037433284
    vertex 1041.1240952576882 946.2860528636747 -262.9078939948598
    vertex 1041.172791731667 945.8331195347453 -262.94230862759656
  endloop
endfacet
facet normal 0.5771381160354558 -1.2712028112733948e-15 0.8166465545259128
  outer loop
    vertex 1044.3168809665917 967.0831195347454 -265.16429037433284
    vertex 1041.172791731667 945.8331195347453 -262.94230862759656
    vertex 1041.172791731667 914.8327195347454 -262.9423086275966
  endloop
endfacet
facet normal 0.5771381160354558 -1.2712028112733948e-15 0.8166465545259128
  outer loop
    vertex 1044.3168809665917 967.0831195347454 -265.16429037433284
    vertex 1041.172791731667 914.8327195347454 -262.9423086275966
    vertex 1044.3168809665915 893.5827195347454 -265.16429037433323
  endloop
endfacet
facet normal 0.5771381160354558 -1.2712028112733948e-15 0.8166465545259128
  outer loop
    vertex 1036.1504154213326 907.9827195347455 -259.3929092139787
    vertex 1038.3145287908264 914.8327195347454 -260.9223252214726
    vertex 1036.150415421333 967.0831195347454 -259.39290921397844
  endloop
endfacet
facet normal 0.5771381160354558 -1.2712028112733948e-15 0.8166465545259128
  outer loop
    vertex 1038.3145287908264 914.8327195347454 -260.9223252214726
    vertex 1036.1504154213326 907.9827195347455 -259.3929092139787
    vertex 1038.3632252648054 914.3797862058159 -260.95673985420933
  endloop
endfacet
facet normal 0.5771381160354558 -1.2712028112733948e-15 0.8166465545259128
  outer loop
    vertex 1038.3632252648054 914.3797862058159 -260.95673985420933
    vertex 1036.1504154213326 907.9827195347455 -259.3929092139787
    vertex 1039.4170016394362 907.9827195347455 -261.70146167812004
  endloop
endfacet
facet normal 0.5771381160354558 -1.2712028112733948e-15 0.8166465545259128
  outer loop
    vertex 1036.150415421333 967.0831195347454 -259.39290921397844
    vertex 1038.3145287908264 914.8327195347454 -260.9223252214726
    vertex 1038.3145287908264 945.8331195347453 -260.92232522147253
  endloop
endfacet
facet normal 0.5771381160354558 -1.2712028112733948e-15 0.8166465545259128
  outer loop
    vertex 1038.3632252648054 914.3797862058159 -260.95673985420933
    vertex 1039.4170016394362 907.9827195347455 -261.70146167812004
    vertex 1038.505996102515 913.9577195347454 -261.05763845207133
  endloop
endfacet
facet normal 0.5771381160354558 -1.2712028112733948e-15 0.8166465545259128
  outer loop
    vertex 1038.505996102515 913.9577195347454 -261.05763845207133
    vertex 1039.4170016394362 907.9827195347455 -261.70146167812004
    vertex 1038.7331117073056 913.5952826676689 -261.21814494235724
  endloop
endfacet
facet normal 0.5771381160354558 -1.2712028112733948e-15 0.8166465545259128
  outer loop
    vertex 1038.7331117073056 913.5952826676689 -261.21814494235724
    vertex 1039.4170016394362 907.9827195347455 -261.70146167812004
    vertex 1039.0290945260367 913.3171750781227 -261.4273210730036
  endloop
endfacet
facet normal 0.5771381160354558 -1.2712028112733948e-15 0.8166465545259128
  outer loop
    vertex 1039.0290945260367 913.3171750781227 -261.4273210730036
    vertex 1039.4170016394362 907.9827195347455 -261.70146167812004
    vertex 1039.3737738187467 913.1423493387396 -261.6709118363866
  endloop
endfacet
facet normal 0.5771381160354558 -1.2712028112733948e-15 0.8166465545259128
  outer loop
    vertex 1039.3737738187467 913.1423493387396 -261.6709118363866
    vertex 1039.4170016394362 907.9827195347455 -261.70146167812004
    vertex 1039.7436602612468 913.0827195347454 -261.9323169245346
  endloop
endfacet
facet normal 2.5429469385094784e-18 -1.0 -9.71112256557674e-17
  outer loop
    vertex 1118.6232194229442 967.0831195347454 -246.6556960136022
    vertex 1045.4711571986627 967.0831195347454 -263.5309972652813
    vertex 1105.637611812146 967.0831195347454 -265.0302434904355
  endloop
endfacet
facet normal 2.5429469385094784e-18 -1.0 -9.71112256557674e-17
  outer loop
    vertex 1045.4711571986627 967.0831195347454 -263.5309972652813
    vertex 1118.6232194229442 967.0831195347454 -246.6556960136022
    vertex 1077.7908916966478 967.0831195347454 -217.79879021182964
  endloop
endfacet
facet normal 2.5429469385094784e-18 -1.0 -9.71112256557674e-17
  outer loop
    vertex 1044.3168809665917 967.0831195347454 -265.16429037433284
    vertex 1045.4711571986627 967.0831195347454 -263.5309972652813
    vertex 1036.150415421333 967.0831195347454 -259.39290921397844
  endloop
endfacet
facet normal 2.5429469385094784e-18 -1.0 -9.71112256557674e-17
  outer loop
    vertex 1045.4711571986627 967.0831195347454 -263.5309972652813
    vertex 1044.3168809665917 967.0831195347454 -265.16429037433284
    vertex 1105.637611812146 967.0831195347454 -265.0302434904355
  endloop
endfacet
facet normal 2.5429469385094784e-18 -1.0 -9.71112256557674e-17
  outer loop
    vertex 1036.150415421333 967.0831195347454 -259.39290921397844
    vertex 1045.4711571986627 967.0831195347454 -263.5309972652813
    vertex 1037.3046916534038 967.0831195347454 -257.7596161049267
  endloop
endfacet
facet normal 0.0 -1.0 0.0
  outer loop
    vertex 1104.081832231742 896.5827195347454 -262.03359863540203
    vertex 1076.636615464577 896.5827195347454 -219.4320833208815
    vertex 1046.4403452369208 896.5827195347454 -262.15960270626573
  endloop
endfacet
facet normal 0.0 -1.0 0.0
  outer loop
    vertex 1076.636615464577 896.5827195347454 -219.4320833208815
    vertex 1104.081832231742 896.5827195347454 -262.03359863540203
    vertex 1115.0190035272954 896.5827195347454 -246.55757477454807
  endloop
endfacet
facet normal 0.5771381160354537 -2.8548004280488505e-15 0.8166465545259144
  outer loop
    vertex 1115.0190035272954 896.5827195347454 -246.55757477454807
    vertex 1076.636615464577 964.0831195347455 -219.4320833208815
    vertex 1076.636615464577 896.5827195347454 -219.4320833208815
  endloop
endfacet
facet normal 0.5771381160354537 -2.8548004280488505e-15 0.8166465545259144
  outer loop
    vertex 1076.636615464577 964.0831195347455 -219.4320833208815
    vertex 1115.0190035272954 896.5827195347454 -246.55757477454807
    vertex 1115.0190035272954 964.0831195347455 -246.5575747745479
  endloop
endfacet
facet normal -0.9999974482277935 -2.32355637016701e-18 -0.002259101126964323
  outer loop
    vertex 1060.9708017332227 941.0831195347455 -262.12798595303724
    vertex 1060.9775792527998 919.5827195347454 -265.1280739976171
    vertex 1060.9708017332227 919.5827195347454 -262.12798595303724
  endloop
endfacet
facet normal -0.9999974482277935 -2.32355637016701e-18 -0.002259101126964323
  outer loop
    vertex 1060.9775792527998 919.5827195347454 -265.1280739976171
    vertex 1060.9708017332227 941.0831195347455 -262.12798595303724
    vertex 1060.9775792527998 941.0831195347455 -265.12807399761675
  endloop
endfacet
facet normal -1.5407439555097883e-33 1.0 -1.972152263052529e-32
  outer loop
    vertex 1044.3168809665915 893.5827195347454 -265.16429037433323
    vertex 1045.4711571986627 893.5827195347454 -263.5309972652816
    vertex 1105.637611812146 893.5827195347454 -265.0302434904356
  endloop
endfacet
facet normal -1.5407439555097883e-33 1.0 -1.972152263052529e-32
  outer loop
    vertex 1045.4711571986627 893.5827195347454 -263.5309972652816
    vertex 1044.3168809665915 893.5827195347454 -265.16429037433323
    vertex 1039.4170016394362 893.5827195347454 -261.70146167812004
  endloop
endfacet
facet normal -1.5407439555097883e-33 1.0 -1.972152263052529e-32
  outer loop
    vertex 1045.4711571986627 893.5827195347454 -263.5309972652816
    vertex 1039.4170016394362 893.5827195347454 -261.70146167812004
    vertex 1040.571277871507 893.5827195347454 -260.06816856906863
  endloop
endfacet
facet normal -1.5407439555097883e-33 1.0 -1.972152263052529e-32
  outer loop
    vertex 1045.4711571986627 893.5827195347454 -263.5309972652816
    vertex 1118.6232194229442 893.5827195347454 -246.65569601360238
    vertex 1105.637611812146 893.5827195347454 -265.0302434904356
  endloop
endfacet
facet normal -1.5407439555097883e-33 1.0 -1.972152263052529e-32
  outer loop
    vertex 1118.6232194229442 893.5827195347454 -246.65569601360238
    vertex 1045.4711571986627 893.5827195347454 -263.5309972652816
    vertex 1077.7908916966478 893.5827195347454 -217.79879021182964
  endloop
endfacet
facet normal 0.002185642158209332 -3.6995045203890454e-07 -0.9999976114812573
  outer loop
    vertex 1104.081832231742 964.0831195347455 -262.0335986354018
    vertex 1060.9708017332227 941.0831195347455 -262.12798595303724
    vertex 1046.4403452369213 964.0831195347455 -262.15960270626573
  endloop
endfacet
facet normal 0.002185642158209332 -3.6995045203890454e-07 -0.9999976114812573
  outer loop
    vertex 1060.9708017332227 941.0831195347455 -262.12798595303724
    vertex 1104.081832231742 964.0831195347455 -262.0335986354018
    vertex 1088.971010366727 941.0831195347455 -262.06686729603285
  endloop
endfacet
facet normal 0.002185642158209332 -3.6995045203890454e-07 -0.9999976114812573
  outer loop
    vertex 1088.971010366727 941.0831195347455 -262.06686729603285
    vertex 1104.081832231742 964.0831195347455 -262.0335986354018
    vertex 1088.9710103667271 919.5827195347454 -262.06686729603325
  endloop
endfacet
facet normal 0.002185642158209332 -3.6995045203890454e-07 -0.9999976114812573
  outer loop
    vertex 1046.4403452369208 896.5827195347454 -262.15960270626573
    vertex 1060.9708017332227 919.5827195347454 -262.12798595303724
    vertex 1104.081832231742 896.5827195347454 -262.03359863540203
  endloop
endfacet
facet normal 0.002185642158209332 -3.6995045203890454e-07 -0.9999976114812573
  outer loop
    vertex 1060.9708017332227 919.5827195347454 -262.12798595303724
    vertex 1046.4403452369208 896.5827195347454 -262.15960270626573
    vertex 1046.4403452369213 964.0831195347455 -262.15960270626573
  endloop
endfacet
facet normal 0.002185642158209332 -3.6995045203890454e-07 -0.9999976114812573
  outer loop
    vertex 1060.9708017332227 919.5827195347454 -262.12798595303724
    vertex 1046.4403452369213 964.0831195347455 -262.15960270626573
    vertex 1060.9708017332227 941.0831195347455 -262.12798595303724
  endloop
endfacet
facet normal 0.002185642158209332 -3.6995045203890454e-07 -0.9999976114812573
  outer loop
    vertex 1104.081832231742 896.5827195347454 -262.03359863540203
    vertex 1060.9708017332227 919.5827195347454 -262.12798595303724
    vertex 1088.9710103667271 919.5827195347454 -262.06686729603325
  endloop
endfacet
facet normal 0.002185642158209332 -3.6995045203890454e-07 -0.9999976114812573
  outer loop
    vertex 1104.081832231742 896.5827195347454 -262.03359863540203
    vertex 1088.9710103667271 919.5827195347454 -262.06686729603325
    vertex 1104.081832231742 964.0831195347455 -262.0335986354018
  endloop
endfacet
facet normal -0.8166465545259161 -5.812327867653936e-17 0.5771381160354515
  outer loop
    vertex 1118.6232194229442 967.0831195347454 -246.6556960136022
    vertex 1105.637611812146 893.5827195347454 -265.0302434904356
    vertex 1118.6232194229442 893.5827195347454 -246.65569601360238
  endloop
endfacet
facet normal -0.8166465545259161 -5.812327867653936e-17 0.5771381160354515
  outer loop
    vertex 1105.637611812146 893.5827195347454 -265.0302434904356
    vertex 1118.6232194229442 967.0831195347454 -246.6556960136022
    vertex 1105.637611812146 967.0831195347454 -265.0302434904355
  endloop
endfacet
facet normal -0.5771381160354515 7.783791623230179e-17 -0.8166465545259161
  outer loop
    vertex 1118.6232194229442 967.0831195347454 -246.6556960136022
    vertex 1077.7908916966478 893.5827195347454 -217.79879021182964
    vertex 1077.7908916966478 967.0831195347454 -217.79879021182964
  endloop
endfacet
facet normal -0.5771381160354515 7.783791623230179e-17 -0.8166465545259161
  outer loop
    vertex 1077.7908916966478 893.5827195347454 -217.79879021182964
    vertex 1118.6232194229442 967.0831195347454 -246.6556960136022
    vertex 1118.6232194229442 893.5827195347454 -246.65569601360238
  endloop
endfacet
facet normal -0.0 1.0 -0.0
  outer loop
    vertex 1076.636615464577 964.0831195347455 -219.4320833208815
    vertex 1104.081832231742 964.0831195347455 -262.0335986354018
    vertex 1046.4403452369213 964.0831195347455 -262.15960270626573
  endloop
endfacet
facet normal -0.0 1.0 -0.0
  outer loop
    vertex 1104.081832231742 964.0831195347455 -262.0335986354018
    vertex 1076.636615464577 964.0831195347455 -219.4320833208815
    vertex 1115.0190035272954 964.0831195347455 -246.5575747745479
  endloop
endfacet
facet normal -0.002188466939921073 1.9903434548024827e-07 0.9999976053033395
  outer loop
    vertex 1044.3168809665915 893.5827195347454 -265.16429037433323
    vertex 1060.9775792527998 919.5827195347454 -265.1280739976171
    vertex 1044.3168809665917 967.0831195347454 -265.16429037433284
  endloop
endfacet
facet normal -0.002188466939921073 1.9903434548024827e-07 0.9999976053033395
  outer loop
    vertex 1060.9775792527998 919.5827195347454 -265.1280739976171
    vertex 1044.3168809665915 893.5827195347454 -265.16429037433323
    vertex 1105.637611812146 893.5827195347454 -265.0302434904356
  endloop
endfacet
facet normal -0.002188466939921073 1.9903434548024827e-07 0.9999976053033395
  outer loop
    vertex 1060.9775792527998 919.5827195347454 -265.1280739976171
    vertex 1105.637611812146 893.5827195347454 -265.0302434904356
    vertex 1088.976913525938 919.5827195347454 -265.06645986715193
  endloop
endfacet
facet normal -0.002188466939921073 1.9903434548024827e-07 0.9999976053033395
  outer loop
    vertex 1088.976913525938 919.5827195347454 -265.06645986715193
    vertex 1105.637611812146 893.5827195347454 -265.0302434904356
    vertex 1088.976913525938 941.0831195347455 -265.0664598671515
  endloop
endfacet
facet normal -0.002188466939921073 1.9903434548024827e-07 0.9999976053033395
  outer loop
    vertex 1044.3168809665917 967.0831195347454 -265.16429037433284
    vertex 1060.9775792527998 941.0831195347455 -265.12807399761675
    vertex 1105.637611812146 967.0831195347454 -265.0302434904355
  endloop
endfacet
facet normal -0.002188466939921073 1.9903434548024827e-07 0.9999976053033395
  outer loop
    vertex 1060.9775792527998 941.0831195347455 -265.12807399761675
    vertex 1044.3168809665917 967.0831195347454 -265.16429037433284
    vertex 1060.9775792527998 919.5827195347454 -265.1280739976171
  endloop
endfacet
facet normal -0.002188466939921073 1.9903434548024827e-07 0.9999976053033395
  outer loop
    vertex 1105.637611812146 967.0831195347454 -265.0302434904355
    vertex 1060.9775792527998 941.0831195347455 -265.12807399761675
    vertex 1088.976913525938 941.0831195347455 -265.0664598671515
  endloop
endfacet
facet normal -0.002188466939921073 1.9903434548024827e-07 0.9999976053033395
  outer loop
    vertex 1105.637611812146 967.0831195347454 -265.0302434904355
    vertex 1088.976913525938 941.0831195347455 -265.0664598671515
    vertex 1105.637611812146 893.5827195347454 -265.0302434904356
  endloop
endfacet
facet normal 2.5429469385094784e-18 -1.0 -9.71112256557674e-17
  outer loop
    vertex 1088.976913525938 919.5827195347454 -265.06645986715193
    vertex 1060.9708017332227 919.5827195347454 -262.12798595303724
    vertex 1060.9775792527998 919.5827195347454 -265.1280739976171
  endloop
endfacet
facet normal 2.5429469385094784e-18 -1.0 -9.71112256557674e-17
  outer loop
    vertex 1060.9708017332227 919.5827195347454 -262.12798595303724
    vertex 1088.976913525938 919.5827195347454 -265.06645986715193
    vertex 1088.9710103667271 919.5827195347454 -262.06686729603325
  endloop
endfacet
facet normal 0.9999980635191921 2.351828753749661e-18 0.001967983197644062
  outer loop
    vertex 1088.976913525938 941.0831195347455 -265.0664598671515
    vertex 1088.9710103667271 919.5827195347454 -262.06686729603325
    vertex 1088.976913525938 919.5827195347454 -265.06645986715193
  endloop
endfacet
facet normal 0.9999980635191921 2.351828753749661e-18 0.001967983197644062
  outer loop
    vertex 1088.9710103667271 919.5827195347454 -262.06686729603325
    vertex 1088.976913525938 941.0831195347455 -265.0664598671515
    vertex 1088.971010366727 941.0831195347455 -262.06686729603285
  endloop
endfacet
facet normal 0.8166465545259152 -9.860761315262643e-33 -0.5771381160354528
  outer loop
    vertex 1039.4170016394362 907.9827195347455 -261.70146167812004
    vertex 1040.571277871507 893.5827195347454 -260.06816856906863
    vertex 1039.4170016394362 893.5827195347454 -261.70146167812004
  endloop
endfacet
facet normal 0.8166465545259152 -9.860761315262643e-33 -0.5771381160354528
  outer loop
    vertex 1040.571277871507 893.5827195347454 -260.06816856906863
    vertex 1039.4170016394362 907.9827195347455 -261.70146167812004
    vertex 1040.571277871507 907.9827195347455 -260.06816856906863
  endloop
endfacet
facet normal -0.5771381160354508 7.677604881228431e-17 -0.8166465545259166
  outer loop
    vertex 1037.3046916534038 967.0831195347454 -257.7596161049267
    vertex 1039.4688050228972 945.8331195347453 -259.28903211242067
    vertex 1037.3046916534038 907.9827195347455 -257.75961610492675
  endloop
endfacet
facet normal -0.5771381160354508 7.677604881228431e-17 -0.8166465545259166
  outer loop
    vertex 1039.4688050228972 945.8331195347453 -259.28903211242067
    vertex 1037.3046916534038 967.0831195347454 -257.7596161049267
    vertex 1039.517501496876 946.2860528636747 -259.3234467451574
  endloop
endfacet
facet normal -0.5771381160354508 7.677604881228431e-17 -0.8166465545259166
  outer loop
    vertex 1039.517501496876 946.2860528636747 -259.3234467451574
    vertex 1037.3046916534038 967.0831195347454 -257.7596161049267
    vertex 1045.4711571986627 967.0831195347454 -263.5309972652813
  endloop
endfacet
facet normal -0.5771381160354508 7.677604881228431e-17 -0.8166465545259166
  outer loop
    vertex 1039.517501496876 946.2860528636747 -259.3234467451574
    vertex 1045.4711571986627 967.0831195347454 -263.5309972652813
    vertex 1039.6602723345857 946.7081195347453 -259.42434534301947
  endloop
endfacet
facet normal -0.5771381160354508 7.677604881228431e-17 -0.8166465545259166
  outer loop
    vertex 1039.6602723345857 946.7081195347453 -259.42434534301947
    vertex 1045.4711571986627 967.0831195347454 -263.5309972652813
    vertex 1039.8873879393764 947.0705564018218 -259.5848518333054
  endloop
endfacet
facet normal -0.5771381160354508 7.677604881228431e-17 -0.8166465545259166
  outer loop
    vertex 1039.8873879393764 947.0705564018218 -259.5848518333054
    vertex 1045.4711571986627 967.0831195347454 -263.5309972652813
    vertex 1040.1833707581072 947.3486639913681 -259.7940279639517
  endloop
endfacet
facet normal -0.5771381160354508 7.677604881228431e-17 -0.8166465545259166
  outer loop
    vertex 1040.1833707581072 947.3486639913681 -259.7940279639517
    vertex 1045.4711571986627 967.0831195347454 -263.5309972652813
    vertex 1040.5280500508175 947.5234897307511 -260.0376187273347
  endloop
endfacet
facet normal -0.5771381160354508 7.677604881228431e-17 -0.8166465545259166
  outer loop
    vertex 1040.5280500508175 947.5234897307511 -260.0376187273347
    vertex 1045.4711571986627 967.0831195347454 -263.5309972652813
    vertex 1040.8979364933175 947.5831195347453 -260.2990238154827
  endloop
endfacet
facet normal -0.5771381160354508 7.677604881228431e-17 -0.8166465545259166
  outer loop
    vertex 1040.8979364933175 947.5831195347453 -260.2990238154827
    vertex 1045.4711571986627 967.0831195347454 -263.5309972652813
    vertex 1041.2678229358178 947.5234897307511 -260.5604289036307
  endloop
endfacet
facet normal -0.5771381160354508 7.677604881228431e-17 -0.8166465545259166
  outer loop
    vertex 1041.2678229358178 947.5234897307511 -260.5604289036307
    vertex 1045.4711571986627 967.0831195347454 -263.5309972652813
    vertex 1041.6125022285278 947.3486639913681 -260.8040196670137
  endloop
endfacet
facet normal -0.5771381160354508 7.677604881228431e-17 -0.8166465545259166
  outer loop
    vertex 1041.6125022285278 947.3486639913681 -260.8040196670137
    vertex 1045.4711571986627 967.0831195347454 -263.5309972652813
    vertex 1041.9084850472589 947.0705564018218 -261.01319579766
  endloop
endfacet
facet normal -0.5771381160354508 7.677604881228431e-17 -0.8166465545259166
  outer loop
    vertex 1041.9084850472589 947.0705564018218 -261.01319579766
    vertex 1045.4711571986627 967.0831195347454 -263.5309972652813
    vertex 1042.1356006520493 946.7081195347453 -261.17370228794596
  endloop
endfacet
facet normal -0.5771381160354508 7.677604881228431e-17 -0.8166465545259166
  outer loop
    vertex 1042.1356006520493 946.7081195347453 -261.17370228794596
    vertex 1045.4711571986627 967.0831195347454 -263.5309972652813
    vertex 1042.2783714897591 946.2860528636747 -261.27460088580796
  endloop
endfacet
facet normal -0.5771381160354508 7.677604881228431e-17 -0.8166465545259166
  outer loop
    vertex 1042.2783714897591 946.2860528636747 -261.27460088580796
    vertex 1045.4711571986627 967.0831195347454 -263.5309972652813
    vertex 1042.3270679637378 945.8331195347453 -261.3090155185447
  endloop
endfacet
facet normal -0.5771381160354508 7.677604881228431e-17 -0.8166465545259166
  outer loop
    vertex 1042.3270679637378 945.8331195347453 -261.3090155185447
    vertex 1045.4711571986627 967.0831195347454 -263.5309972652813
    vertex 1042.327067963738 914.8327195347454 -261.30901551854475
  endloop
endfacet
facet normal -0.5771381160354508 7.677604881228431e-17 -0.8166465545259166
  outer loop
    vertex 1042.327067963738 914.8327195347454 -261.30901551854475
    vertex 1045.4711571986627 967.0831195347454 -263.5309972652813
    vertex 1045.4711571986627 893.5827195347454 -263.5309972652816
  endloop
endfacet
facet normal -0.5771381160354508 7.677604881228431e-17 -0.8166465545259166
  outer loop
    vertex 1037.3046916534038 907.9827195347455 -257.75961610492675
    vertex 1039.5175014968763 914.3797862058159 -259.32344674515747
    vertex 1040.571277871507 907.9827195347455 -260.06816856906863
  endloop
endfacet
facet normal -0.5771381160354508 7.677604881228431e-17 -0.8166465545259166
  outer loop
    vertex 1039.5175014968763 914.3797862058159 -259.32344674515747
    vertex 1037.3046916534038 907.9827195347455 -257.75961610492675
    vertex 1039.4688050228974 914.8327195347454 -259.2890321124207
  endloop
endfacet
facet normal -0.5771381160354508 7.677604881228431e-17 -0.8166465545259166
  outer loop
    vertex 1039.4688050228974 914.8327195347454 -259.2890321124207
    vertex 1037.3046916534038 907.9827195347455 -257.75961610492675
    vertex 1039.4688050228972 945.8331195347453 -259.28903211242067
  endloop
endfacet
facet normal -0.5771381160354508 7.677604881228431e-17 -0.8166465545259166
  outer loop
    vertex 1040.571277871507 907.9827195347455 -260.06816856906863
    vertex 1039.5175014968763 914.3797862058159 -259.32344674515747
    vertex 1039.660272334586 913.9577195347454 -259.42434534301947
  endloop
endfacet
facet normal -0.5771381160354508 7.677604881228431e-17 -0.8166465545259166
  outer loop
    vertex 1040.571277871507 907.9827195347455 -260.06816856906863
    vertex 1039.660272334586 913.9577195347454 -259.42434534301947
    vertex 1039.8873879393764 913.5952826676689 -259.58485183330544
  endloop
endfacet
facet normal -0.5771381160354508 7.677604881228431e-17 -0.8166465545259166
  outer loop
    vertex 1040.571277871507 907.9827195347455 -260.06816856906863
    vertex 1039.8873879393764 913.5952826676689 -259.58485183330544
    vertex 1040.1833707581075 913.3171750781227 -259.79402796395175
  endloop
endfacet
facet normal -0.5771381160354508 7.677604881228431e-17 -0.8166465545259166
  outer loop
    vertex 1040.571277871507 907.9827195347455 -260.06816856906863
    vertex 1040.1833707581075 913.3171750781227 -259.79402796395175
    vertex 1040.5280500508175 913.1423493387396 -260.03761872733475
  endloop
endfacet
facet normal -0.5771381160354508 7.677604881228431e-17 -0.8166465545259166
  outer loop
    vertex 1040.571277871507 907.9827195347455 -260.06816856906863
    vertex 1040.5280500508175 913.1423493387396 -260.03761872733475
    vertex 1040.8979364933177 913.0827195347454 -260.2990238154827
  endloop
endfacet
facet normal -0.5771381160354508 7.677604881228431e-17 -0.8166465545259166
  outer loop
    vertex 1040.571277871507 907.9827195347455 -260.06816856906863
    vertex 1040.8979364933177 913.0827195347454 -260.2990238154827
    vertex 1040.571277871507 893.5827195347454 -260.06816856906863
  endloop
endfacet
facet normal -0.5771381160354508 7.677604881228431e-17 -0.8166465545259166
  outer loop
    vertex 1040.571277871507 893.5827195347454 -260.06816856906863
    vertex 1040.8979364933177 913.0827195347454 -260.2990238154827
    vertex 1045.4711571986627 893.5827195347454 -263.5309972652816
  endloop
endfacet
facet normal -0.5771381160354508 7.677604881228431e-17 -0.8166465545259166
  outer loop
    vertex 1045.4711571986627 893.5827195347454 -263.5309972652816
    vertex 1040.8979364933177 913.0827195347454 -260.2990238154827
    vertex 1041.267822935818 913.1423493387396 -260.56042890363074
  endloop
endfacet
facet normal -0.5771381160354508 7.677604881228431e-17 -0.8166465545259166
  outer loop
    vertex 1045.4711571986627 893.5827195347454 -263.5309972652816
    vertex 1041.267822935818 913.1423493387396 -260.56042890363074
    vertex 1041.612502228528 913.3171750781227 -260.80401966701373
  endloop
endfacet
facet normal -0.5771381160354508 7.677604881228431e-17 -0.8166465545259166
  outer loop
    vertex 1045.4711571986627 893.5827195347454 -263.5309972652816
    vertex 1041.612502228528 913.3171750781227 -260.80401966701373
    vertex 1041.908485047259 913.5952826676689 -261.01319579766005
  endloop
endfacet
facet normal -0.5771381160354508 7.677604881228431e-17 -0.8166465545259166
  outer loop
    vertex 1045.4711571986627 893.5827195347454 -263.5309972652816
    vertex 1041.908485047259 913.5952826676689 -261.01319579766005
    vertex 1042.1356006520496 913.9577195347454 -261.17370228794596
  endloop
endfacet
facet normal -0.5771381160354508 7.677604881228431e-17 -0.8166465545259166
  outer loop
    vertex 1045.4711571986627 893.5827195347454 -263.5309972652816
    vertex 1042.1356006520496 913.9577195347454 -261.17370228794596
    vertex 1042.2783714897591 914.3797862058159 -261.274600885808
  endloop
endfacet
facet normal -0.5771381160354508 7.677604881228431e-17 -0.8166465545259166
  outer loop
    vertex 1045.4711571986627 893.5827195347454 -263.5309972652816
    vertex 1042.2783714897591 914.3797862058159 -261.274600885808
    vertex 1042.327067963738 914.8327195347454 -261.30901551854475
  endloop
endfacet
facet normal -0.5771381160354508 7.677604881228431e-17 -0.8166465545259166
  outer loop
    vertex 1039.517501496876 945.3801862058158 -259.3234467451574
    vertex 1039.4688050228974 914.8327195347454 -259.2890321124207
    vertex 1039.4688050228972 945.8331195347453 -259.28903211242067
  endloop
endfacet
facet normal -0.5771381160354508 7.677604881228431e-17 -0.8166465545259166
  outer loop
    vertex 1039.4688050228974 914.8327195347454 -259.2890321124207
    vertex 1039.517501496876 945.3801862058158 -259.3234467451574
    vertex 1039.5175014968763 915.2856528636748 -259.32344674515747
  endloop
endfacet
facet normal -0.5771381160354508 7.677604881228431e-17 -0.8166465545259166
  outer loop
    vertex 1039.5175014968763 915.2856528636748 -259.32344674515747
    vertex 1039.517501496876 945.3801862058158 -259.3234467451574
    vertex 1039.6602723345857 944.9581195347454 -259.42434534301947
  endloop
endfacet
facet normal -0.5771381160354508 7.677604881228431e-17 -0.8166465545259166
  outer loop
    vertex 1039.5175014968763 915.2856528636748 -259.32344674515747
    vertex 1039.6602723345857 944.9581195347454 -259.42434534301947
    vertex 1039.660272334586 915.7077195347454 -259.42434534301947
  endloop
endfacet
facet normal -0.5771381160354508 7.677604881228431e-17 -0.8166465545259166
  outer loop
    vertex 1039.660272334586 915.7077195347454 -259.42434534301947
    vertex 1039.6602723345857 944.9581195347454 -259.42434534301947
    vertex 1039.8873879393764 944.5956826676688 -259.5848518333054
  endloop
endfacet
facet normal -0.5771381160354508 7.677604881228431e-17 -0.8166465545259166
  outer loop
    vertex 1039.660272334586 915.7077195347454 -259.42434534301947
    vertex 1039.8873879393764 944.5956826676688 -259.5848518333054
    vertex 1039.8873879393764 916.0701564018219 -259.58485183330544
  endloop
endfacet
facet normal -0.5771381160354508 7.677604881228431e-17 -0.8166465545259166
  outer loop
    vertex 1039.8873879393764 916.0701564018219 -259.58485183330544
    vertex 1039.8873879393764 944.5956826676688 -259.5848518333054
    vertex 1040.1833707581072 944.3175750781226 -259.7940279639517
  endloop
endfacet
facet normal -0.5771381160354508 7.677604881228431e-17 -0.8166465545259166
  outer loop
    vertex 1039.8873879393764 916.0701564018219 -259.58485183330544
    vertex 1040.1833707581072 944.3175750781226 -259.7940279639517
    vertex 1040.1833707581075 916.3482639913682 -259.79402796395175
  endloop
endfacet
facet normal -0.5771381160354508 7.677604881228431e-17 -0.8166465545259166
  outer loop
    vertex 1040.1833707581075 916.3482639913682 -259.79402796395175
    vertex 1040.1833707581072 944.3175750781226 -259.7940279639517
    vertex 1040.5280500508175 944.1427493387395 -260.0376187273347
  endloop
endfacet
facet normal -0.5771381160354508 7.677604881228431e-17 -0.8166465545259166
  outer loop
    vertex 1040.1833707581075 916.3482639913682 -259.79402796395175
    vertex 1040.5280500508175 944.1427493387395 -260.0376187273347
    vertex 1040.5280500508175 916.5230897307512 -260.03761872733475
  endloop
endfacet
facet normal -0.5771381160354508 7.677604881228431e-17 -0.8166465545259166
  outer loop
    vertex 1040.5280500508175 916.5230897307512 -260.03761872733475
    vertex 1040.5280500508175 944.1427493387395 -260.0376187273347
    vertex 1040.8979364933175 944.0831195347454 -260.2990238154827
  endloop
endfacet
facet normal -0.5771381160354508 7.677604881228431e-17 -0.8166465545259166
  outer loop
    vertex 1040.5280500508175 916.5230897307512 -260.03761872733475
    vertex 1040.8979364933175 944.0831195347454 -260.2990238154827
    vertex 1040.8979364933177 916.5827195347454 -260.2990238154827
  endloop
endfacet
facet normal -0.5771381160354508 7.677604881228431e-17 -0.8166465545259166
  outer loop
    vertex 1040.8979364933177 916.5827195347454 -260.2990238154827
    vertex 1040.8979364933175 944.0831195347454 -260.2990238154827
    vertex 1041.2678229358178 944.1427493387395 -260.5604289036307
  endloop
endfacet
facet normal -0.5771381160354508 7.677604881228431e-17 -0.8166465545259166
  outer loop
    vertex 1040.8979364933177 916.5827195347454 -260.2990238154827
    vertex 1041.2678229358178 944.1427493387395 -260.5604289036307
    vertex 1041.267822935818 916.5230897307512 -260.56042890363074
  endloop
endfacet
facet normal -0.5771381160354508 7.677604881228431e-17 -0.8166465545259166
  outer loop
    vertex 1041.267822935818 916.5230897307512 -260.56042890363074
    vertex 1041.2678229358178 944.1427493387395 -260.5604289036307
    vertex 1041.6125022285278 944.3175750781226 -260.8040196670137
  endloop
endfacet
facet normal -0.5771381160354508 7.677604881228431e-17 -0.8166465545259166
  outer loop
    vertex 1041.267822935818 916.5230897307512 -260.56042890363074
    vertex 1041.6125022285278 944.3175750781226 -260.8040196670137
    vertex 1041.612502228528 916.3482639913682 -260.80401966701373
  endloop
endfacet
facet normal -0.5771381160354508 7.677604881228431e-17 -0.8166465545259166
  outer loop
    vertex 1041.612502228528 916.3482639913682 -260.80401966701373
    vertex 1041.6125022285278 944.3175750781226 -260.8040196670137
    vertex 1041.9084850472589 944.5956826676688 -261.01319579766
  endloop
endfacet
facet normal -0.5771381160354508 7.677604881228431e-17 -0.8166465545259166
  outer loop
    vertex 1041.612502228528 916.3482639913682 -260.80401966701373
    vertex 1041.9084850472589 944.5956826676688 -261.01319579766
    vertex 1041.908485047259 916.0701564018219 -261.01319579766005
  endloop
endfacet
facet normal -0.5771381160354508 7.677604881228431e-17 -0.8166465545259166
  outer loop
    vertex 1041.908485047259 916.0701564018219 -261.01319579766005
    vertex 1041.9084850472589 944.5956826676688 -261.01319579766
    vertex 1042.1356006520493 944.9581195347454 -261.17370228794596
  endloop
endfacet
facet normal -0.5771381160354508 7.677604881228431e-17 -0.8166465545259166
  outer loop
    vertex 1041.908485047259 916.0701564018219 -261.01319579766005
    vertex 1042.1356006520493 944.9581195347454 -261.17370228794596
    vertex 1042.1356006520496 915.7077195347454 -261.17370228794596
  endloop
endfacet
facet normal -0.5771381160354508 7.677604881228431e-17 -0.8166465545259166
  outer loop
    vertex 1042.1356006520496 915.7077195347454 -261.17370228794596
    vertex 1042.1356006520493 944.9581195347454 -261.17370228794596
    vertex 1042.2783714897591 945.3801862058158 -261.27460088580796
  endloop
endfacet
facet normal -0.5771381160354508 7.677604881228431e-17 -0.8166465545259166
  outer loop
    vertex 1042.1356006520496 915.7077195347454 -261.17370228794596
    vertex 1042.2783714897591 945.3801862058158 -261.27460088580796
    vertex 1042.2783714897591 915.2856528636748 -261.274600885808
  endloop
endfacet
facet normal -0.5771381160354508 7.677604881228431e-17 -0.8166465545259166
  outer loop
    vertex 1042.2783714897591 915.2856528636748 -261.274600885808
    vertex 1042.2783714897591 945.3801862058158 -261.27460088580796
    vertex 1042.3270679637378 945.8331195347453 -261.3090155185447
  endloop
endfacet
facet normal -0.5771381160354508 7.677604881228431e-17 -0.8166465545259166
  outer loop
    vertex 1042.2783714897591 915.2856528636748 -261.274600885808
    vertex 1042.3270679637378 945.8331195347453 -261.3090155185447
    vertex 1042.327067963738 914.8327195347454 -261.30901551854475
  endloop
endfacet
facet normal 0.8166465545259161 5.812327867653936e-17 -0.5771381160354515
  outer loop
    vertex 1104.081832231742 964.0831195347455 -262.0335986354018
    vertex 1115.0190035272954 896.5827195347454 -246.55757477454807
    vertex 1104.081832231742 896.5827195347454 -262.03359863540203
  endloop
endfacet
facet normal 0.8166465545259161 5.812327867653936e-17 -0.5771381160354515
  outer loop
    vertex 1115.0190035272954 896.5827195347454 -246.55757477454807
    vertex 1104.081832231742 964.0831195347455 -262.0335986354018
    vertex 1115.0190035272954 964.0831195347455 -246.5575747745479
  endloop
endfacet
facet normal -1.5407439555097883e-33 1.0 -1.972152263052529e-32
  outer loop
    vertex 1036.1504154213326 907.9827195347455 -259.3929092139787
    vertex 1040.571277871507 907.9827195347455 -260.06816856906863
    vertex 1039.4170016394362 907.9827195347455 -261.70146167812004
  endloop
endfacet
facet normal -1.5407439555097883e-33 1.0 -1.972152263052529e-32
  outer loop
    vertex 1040.571277871507 907.9827195347455 -260.06816856906863
    vertex 1036.1504154213326 907.9827195347455 -259.3929092139787
    vertex 1037.3046916534038 907.9827195347455 -257.75961610492675
  endloop
endfacet
facet normal -2.5429469385094784e-18 1.0 9.71112256557674e-17
  outer loop
    vertex 1060.9708017332227 941.0831195347455 -262.12798595303724
    vertex 1088.976913525938 941.0831195347455 -265.0664598671515
    vertex 1060.9775792527998 941.0831195347455 -265.12807399761675
  endloop
endfacet
facet normal -2.5429469385094784e-18 1.0 9.71112256557674e-17
  outer loop
    vertex 1088.976913525938 941.0831195347455 -265.0664598671515
    vertex 1060.9708017332227 941.0831195347455 -262.12798595303724
    vertex 1088.971010366727 941.0831195347455 -262.06686729603285
  endloop
endfacet
facet normal 0.6478892718704485 -0.6087614290087482 -0.45787445216610084
  outer loop
    vertex 1040.9813244199788 913.9577195347454 -262.8069953969978
    vertex 1041.908485047259 913.5952826676689 -261.01319579766005
    vertex 1040.7542088151881 913.5952826676689 -262.6464889067119
  endloop
endfacet
facet normal 0.6478892718704485 -0.6087614290087482 -0.45787445216610084
  outer loop
    vertex 1041.908485047259 913.5952826676689 -261.01319579766005
    vertex 1040.9813244199788 913.9577195347454 -262.8069953969978
    vertex 1042.1356006520496 913.9577195347454 -261.17370228794596
  endloop
endfacet
facet normal 0.754483037022358 -0.3826834323650918 -0.5332060928372738
  outer loop
    vertex 1041.1240952576884 914.3797862058159 -262.9078939948599
    vertex 1042.1356006520496 913.9577195347454 -261.17370228794596
    vertex 1040.9813244199788 913.9577195347454 -262.8069953969978
  endloop
endfacet
facet normal 0.754483037022358 -0.3826834323650918 -0.5332060928372738
  outer loop
    vertex 1042.1356006520496 913.9577195347454 -261.17370228794596
    vertex 1041.1240952576884 914.3797862058159 -262.9078939948599
    vertex 1042.2783714897591 914.3797862058159 -261.274600885808
  endloop
endfacet
facet normal 0.8096600300433603 -0.1305261922199486 -0.5722006194463146
  outer loop
    vertex 1041.172791731667 914.8327195347454 -262.9423086275966
    vertex 1042.2783714897591 914.3797862058159 -261.274600885808
    vertex 1041.1240952576884 914.3797862058159 -262.9078939948599
  endloop
endfacet
facet normal 0.8096600300433603 -0.1305261922199486 -0.5722006194463146
  outer loop
    vertex 1042.2783714897591 914.3797862058159 -261.274600885808
    vertex 1041.172791731667 914.8327195347454 -262.9423086275966
    vertex 1042.327067963738 914.8327195347454 -261.30901551854475
  endloop
endfacet
facet normal 0.8096600300433603 0.1305261922199486 -0.5722006194463146
  outer loop
    vertex 1041.1240952576884 915.2856528636748 -262.9078939948599
    vertex 1042.327067963738 914.8327195347454 -261.30901551854475
    vertex 1041.172791731667 914.8327195347454 -262.9423086275966
  endloop
endfacet
facet normal 0.8096600300433603 0.1305261922199486 -0.5722006194463146
  outer loop
    vertex 1042.327067963738 914.8327195347454 -261.30901551854475
    vertex 1041.1240952576884 915.2856528636748 -262.9078939948599
    vertex 1042.2783714897591 915.2856528636748 -261.274600885808
  endloop
endfacet
facet normal 0.754483037022358 0.3826834323650918 -0.5332060928372738
  outer loop
    vertex 1040.9813244199788 915.7077195347454 -262.8069953969978
    vertex 1042.2783714897591 915.2856528636748 -261.274600885808
    vertex 1041.1240952576884 915.2856528636748 -262.9078939948599
  endloop
endfacet
facet normal 0.754483037022358 0.3826834323650918 -0.5332060928372738
  outer loop
    vertex 1042.2783714897591 915.2856528636748 -261.274600885808
    vertex 1040.9813244199788 915.7077195347454 -262.8069953969978
    vertex 1042.1356006520496 915.7077195347454 -261.17370228794596
  endloop
endfacet
facet normal 0.6478892718704485 0.6087614290087482 -0.45787445216610084
  outer loop
    vertex 1040.7542088151881 916.0701564018219 -262.6464889067119
    vertex 1042.1356006520496 915.7077195347454 -261.17370228794596
    vertex 1040.9813244199788 915.7077195347454 -262.8069953969978
  endloop
endfacet
facet normal 0.6478892718704485 0.6087614290087482 -0.45787445216610084
  outer loop
    vertex 1042.1356006520496 915.7077195347454 -261.17370228794596
    vertex 1040.7542088151881 916.0701564018219 -262.6464889067119
    vertex 1041.908485047259 916.0701564018219 -261.01319579766005
  endloop
endfacet
facet normal 0.4971429235282858 0.793353340291198 -0.35133942425316805
  outer loop
    vertex 1040.458225996457 916.3482639913682 -262.4373127760656
    vertex 1041.908485047259 916.0701564018219 -261.01319579766005
    vertex 1040.7542088151881 916.0701564018219 -262.6464889067119
  endloop
endfacet
facet normal 0.4971429235282858 0.793353340291198 -0.35133942425316805
  outer loop
    vertex 1041.908485047259 916.0701564018219 -261.01319579766005
    vertex 1040.458225996457 916.3482639913682 -262.4373127760656
    vertex 1041.612502228528 916.3482639913682 -260.80401966701373
  endloop
endfacet
facet normal 0.31251710651499 0.9238795325113442 -0.22086119519308683
  outer loop
    vertex 1040.113546703747 916.5230897307512 -262.1937220126826
    vertex 1041.612502228528 916.3482639913682 -260.80401966701373
    vertex 1040.458225996457 916.3482639913682 -262.4373127760656
  endloop
endfacet
facet normal 0.31251710651499 0.9238795325113442 -0.22086119519308683
  outer loop
    vertex 1041.612502228528 916.3482639913682 -260.80401966701373
    vertex 1040.113546703747 916.5230897307512 -262.1937220126826
    vertex 1041.267822935818 916.5230897307512 -260.56042890363074
  endloop
endfacet
facet normal 0.10659376515194749 0.9914448613738017 -0.0753316406711999
  outer loop
    vertex 1039.7436602612468 916.5827195347454 -261.9323169245346
    vertex 1041.267822935818 916.5230897307512 -260.56042890363074
    vertex 1040.113546703747 916.5230897307512 -262.1937220126826
  endloop
endfacet
facet normal 0.10659376515194749 0.9914448613738017 -0.0753316406711999
  outer loop
    vertex 1041.267822935818 916.5230897307512 -260.56042890363074
    vertex 1039.7436602612468 916.5827195347454 -261.9323169245346
    vertex 1040.8979364933177 916.5827195347454 -260.2990238154827
  endloop
endfacet
facet normal -0.10659376515194749 0.9914448613738017 0.0753316406711999
  outer loop
    vertex 1039.3737738187467 916.5230897307512 -261.6709118363866
    vertex 1040.8979364933177 916.5827195347454 -260.2990238154827
    vertex 1039.7436602612468 916.5827195347454 -261.9323169245346
  endloop
endfacet
facet normal -0.10659376515194749 0.9914448613738017 0.0753316406711999
  outer loop
    vertex 1040.8979364933177 916.5827195347454 -260.2990238154827
    vertex 1039.3737738187467 916.5230897307512 -261.6709118363866
    vertex 1040.5280500508175 916.5230897307512 -260.03761872733475
  endloop
endfacet
facet normal -0.31251710651499 0.9238795325113442 0.22086119519308683
  outer loop
    vertex 1039.0290945260367 916.3482639913682 -261.4273210730036
    vertex 1040.5280500508175 916.5230897307512 -260.03761872733475
    vertex 1039.3737738187467 916.5230897307512 -261.6709118363866
  endloop
endfacet
facet normal -0.31251710651499 0.9238795325113442 0.22086119519308683
  outer loop
    vertex 1040.5280500508175 916.5230897307512 -260.03761872733475
    vertex 1039.0290945260367 916.3482639913682 -261.4273210730036
    vertex 1040.1833707581075 916.3482639913682 -259.79402796395175
  endloop
endfacet
facet normal -0.4971429235282858 0.793353340291198 0.35133942425316805
  outer loop
    vertex 1038.7331117073056 916.0701564018219 -261.21814494235724
    vertex 1040.1833707581075 916.3482639913682 -259.79402796395175
    vertex 1039.0290945260367 916.3482639913682 -261.4273210730036
  endloop
endfacet
facet normal -0.4971429235282858 0.793353340291198 0.35133942425316805
  outer loop
    vertex 1040.1833707581075 916.3482639913682 -259.79402796395175
    vertex 1038.7331117073056 916.0701564018219 -261.21814494235724
    vertex 1039.8873879393764 916.0701564018219 -259.58485183330544
  endloop
endfacet
facet normal -0.6478892718704485 0.6087614290087482 0.45787445216610084
  outer loop
    vertex 1039.8873879393764 916.0701564018219 -259.58485183330544
    vertex 1038.505996102515 915.7077195347454 -261.05763845207133
    vertex 1039.660272334586 915.7077195347454 -259.42434534301947
  endloop
endfacet
facet normal -0.6478892718704485 0.6087614290087482 0.45787445216610084
  outer loop
    vertex 1038.505996102515 915.7077195347454 -261.05763845207133
    vertex 1039.8873879393764 916.0701564018219 -259.58485183330544
    vertex 1038.7331117073056 916.0701564018219 -261.21814494235724
  endloop
endfacet
facet normal -0.754483037022358 0.3826834323650918 0.5332060928372738
  outer loop
    vertex 1039.660272334586 915.7077195347454 -259.42434534301947
    vertex 1038.3632252648054 915.2856528636748 -260.95673985420933
    vertex 1039.5175014968763 915.2856528636748 -259.32344674515747
  endloop
endfacet
facet normal -0.754483037022358 0.3826834323650918 0.5332060928372738
  outer loop
    vertex 1038.3632252648054 915.2856528636748 -260.95673985420933
    vertex 1039.660272334586 915.7077195347454 -259.42434534301947
    vertex 1038.505996102515 915.7077195347454 -261.05763845207133
  endloop
endfacet
facet normal -0.8096600300433603 0.1305261922199486 0.5722006194463146
  outer loop
    vertex 1039.5175014968763 915.2856528636748 -259.32344674515747
    vertex 1038.3145287908264 914.8327195347454 -260.9223252214726
    vertex 1039.4688050228974 914.8327195347454 -259.2890321124207
  endloop
endfacet
facet normal -0.8096600300433603 0.1305261922199486 0.5722006194463146
  outer loop
    vertex 1038.3145287908264 914.8327195347454 -260.9223252214726
    vertex 1039.5175014968763 915.2856528636748 -259.32344674515747
    vertex 1038.3632252648054 915.2856528636748 -260.95673985420933
  endloop
endfacet
facet normal -0.8096600300433603 -0.1305261922199486 0.5722006194463146
  outer loop
    vertex 1039.4688050228974 914.8327195347454 -259.2890321124207
    vertex 1038.3632252648054 914.3797862058159 -260.95673985420933
    vertex 1039.5175014968763 914.3797862058159 -259.32344674515747
  endloop
endfacet
facet normal -0.8096600300433603 -0.1305261922199486 0.5722006194463146
  outer loop
    vertex 1038.3632252648054 914.3797862058159 -260.95673985420933
    vertex 1039.4688050228974 914.8327195347454 -259.2890321124207
    vertex 1038.3145287908264 914.8327195347454 -260.9223252214726
  endloop
endfacet
facet normal -0.754483037022358 -0.3826834323650918 0.5332060928372738
  outer loop
    vertex 1039.5175014968763 914.3797862058159 -259.32344674515747
    vertex 1038.505996102515 913.9577195347454 -261.05763845207133
    vertex 1039.660272334586 913.9577195347454 -259.42434534301947
  endloop
endfacet
facet normal -0.754483037022358 -0.3826834323650918 0.5332060928372738
  outer loop
    vertex 1038.505996102515 913.9577195347454 -261.05763845207133
    vertex 1039.5175014968763 914.3797862058159 -259.32344674515747
    vertex 1038.3632252648054 914.3797862058159 -260.95673985420933
  endloop
endfacet
facet normal -0.6478892718704485 -0.6087614290087482 0.45787445216610084
  outer loop
    vertex 1039.660272334586 913.9577195347454 -259.42434534301947
    vertex 1038.7331117073056 913.5952826676689 -261.21814494235724
    vertex 1039.8873879393764 913.5952826676689 -259.58485183330544
  endloop
endfacet
facet normal -0.6478892718704485 -0.6087614290087482 0.45787445216610084
  outer loop
    vertex 1038.7331117073056 913.5952826676689 -261.21814494235724
    vertex 1039.660272334586 913.9577195347454 -259.42434534301947
    vertex 1038.505996102515 913.9577195347454 -261.05763845207133
  endloop
endfacet
facet normal -0.4971429235282858 -0.793353340291198 0.35133942425316805
  outer loop
    vertex 1040.1833707581075 913.3171750781227 -259.79402796395175
    vertex 1038.7331117073056 913.5952826676689 -261.21814494235724
    vertex 1039.0290945260367 913.3171750781227 -261.4273210730036
  endloop
endfacet
facet normal -0.4971429235282858 -0.793353340291198 0.35133942425316805
  outer loop
    vertex 1038.7331117073056 913.5952826676689 -261.21814494235724
    vertex 1040.1833707581075 913.3171750781227 -259.79402796395175
    vertex 1039.8873879393764 913.5952826676689 -259.58485183330544
  endloop
endfacet
facet normal -0.31251710651499 -0.9238795325113442 0.22086119519308683
  outer loop
    vertex 1040.5280500508175 913.1423493387396 -260.03761872733475
    vertex 1039.0290945260367 913.3171750781227 -261.4273210730036
    vertex 1039.3737738187467 913.1423493387396 -261.6709118363866
  endloop
endfacet
facet normal -0.31251710651499 -0.9238795325113442 0.22086119519308683
  outer loop
    vertex 1039.0290945260367 913.3171750781227 -261.4273210730036
    vertex 1040.5280500508175 913.1423493387396 -260.03761872733475
    vertex 1040.1833707581075 913.3171750781227 -259.79402796395175
  endloop
endfacet
facet normal -0.10659376515194749 -0.9914448613738017 0.0753316406711999
  outer loop
    vertex 1040.8979364933177 913.0827195347454 -260.2990238154827
    vertex 1039.3737738187467 913.1423493387396 -261.6709118363866
    vertex 1039.7436602612468 913.0827195347454 -261.9323169245346
  endloop
endfacet
facet normal -0.10659376515194749 -0.9914448613738017 0.0753316406711999
  outer loop
    vertex 1039.3737738187467 913.1423493387396 -261.6709118363866
    vertex 1040.8979364933177 913.0827195347454 -260.2990238154827
    vertex 1040.5280500508175 913.1423493387396 -260.03761872733475
  endloop
endfacet
facet normal 0.10659376515194749 -0.9914448613738017 -0.0753316406711999
  outer loop
    vertex 1041.267822935818 913.1423493387396 -260.56042890363074
    vertex 1039.7436602612468 913.0827195347454 -261.9323169245346
    vertex 1040.113546703747 913.1423493387396 -262.1937220126826
  endloop
endfacet
facet normal 0.10659376515194749 -0.9914448613738017 -0.0753316406711999
  outer loop
    vertex 1039.7436602612468 913.0827195347454 -261.9323169245346
    vertex 1041.267822935818 913.1423493387396 -260.56042890363074
    vertex 1040.8979364933177 913.0827195347454 -260.2990238154827
  endloop
endfacet
facet normal 0.31251710651499 -0.9238795325113442 -0.22086119519308683
  outer loop
    vertex 1041.612502228528 913.3171750781227 -260.80401966701373
    vertex 1040.113546703747 913.1423493387396 -262.1937220126826
    vertex 1040.458225996457 913.3171750781227 -262.4373127760656
  endloop
endfacet
facet normal 0.31251710651499 -0.9238795325113442 -0.22086119519308683
  outer loop
    vertex 1040.113546703747 913.1423493387396 -262.1937220126826
    vertex 1041.612502228528 913.3171750781227 -260.80401966701373
    vertex 1041.267822935818 913.1423493387396 -260.56042890363074
  endloop
endfacet
facet normal 0.4971429235282858 -0.793353340291198 -0.35133942425316805
  outer loop
    vertex 1041.908485047259 913.5952826676689 -261.01319579766005
    vertex 1040.458225996457 913.3171750781227 -262.4373127760656
    vertex 1040.7542088151881 913.5952826676689 -262.6464889067119
  endloop
endfacet
facet normal 0.4971429235282858 -0.793353340291198 -0.35133942425316805
  outer loop
    vertex 1040.458225996457 913.3171750781227 -262.4373127760656
    vertex 1041.908485047259 913.5952826676689 -261.01319579766005
    vertex 1041.612502228528 913.3171750781227 -260.80401966701373
  endloop
endfacet
facet normal -0.7544830370223581 0.3826834323650919 0.5332060928372739
  outer loop
    vertex 1039.6602723345857 946.7081195347453 -259.42434534301947
    vertex 1038.3632252648051 946.2860528636747 -260.9567398542093
    vertex 1039.517501496876 946.2860528636747 -259.3234467451574
  endloop
endfacet
facet normal -0.7544830370223581 0.3826834323650919 0.5332060928372739
  outer loop
    vertex 1038.3632252648051 946.2860528636747 -260.9567398542093
    vertex 1039.6602723345857 946.7081195347453 -259.42434534301947
    vertex 1038.505996102515 946.7081195347453 -261.05763845207133
  endloop
endfacet
facet normal -0.8096600300433603 0.1305261922199486 0.5722006194463146
  outer loop
    vertex 1039.517501496876 946.2860528636747 -259.3234467451574
    vertex 1038.3145287908264 945.8331195347453 -260.92232522147253
    vertex 1039.4688050228972 945.8331195347453 -259.28903211242067
  endloop
endfacet
facet normal -0.8096600300433603 0.1305261922199486 0.5722006194463146
  outer loop
    vertex 1038.3145287908264 945.8331195347453 -260.92232522147253
    vertex 1039.517501496876 946.2860528636747 -259.3234467451574
    vertex 1038.3632252648051 946.2860528636747 -260.9567398542093
  endloop
endfacet
facet normal -0.8096600300433603 -0.1305261922199486 0.5722006194463146
  outer loop
    vertex 1039.4688050228972 945.8331195347453 -259.28903211242067
    vertex 1038.3632252648051 945.3801862058158 -260.9567398542093
    vertex 1039.517501496876 945.3801862058158 -259.3234467451574
  endloop
endfacet
facet normal -0.8096600300433603 -0.1305261922199486 0.5722006194463146
  outer loop
    vertex 1038.3632252648051 945.3801862058158 -260.9567398542093
    vertex 1039.4688050228972 945.8331195347453 -259.28903211242067
    vertex 1038.3145287908264 945.8331195347453 -260.92232522147253
  endloop
endfacet
facet normal -0.7544830370223581 -0.3826834323650919 0.5332060928372739
  outer loop
    vertex 1039.517501496876 945.3801862058158 -259.3234467451574
    vertex 1038.505996102515 944.9581195347454 -261.05763845207133
    vertex 1039.6602723345857 944.9581195347454 -259.42434534301947
  endloop
endfacet
facet normal -0.7544830370223581 -0.3826834323650919 0.5332060928372739
  outer loop
    vertex 1038.505996102515 944.9581195347454 -261.05763845207133
    vertex 1039.517501496876 945.3801862058158 -259.3234467451574
    vertex 1038.3632252648051 945.3801862058158 -260.9567398542093
  endloop
endfacet
facet normal -0.6478892718704485 -0.6087614290087482 0.45787445216610095
  outer loop
    vertex 1039.6602723345857 944.9581195347454 -259.42434534301947
    vertex 1038.7331117073054 944.5956826676688 -261.21814494235724
    vertex 1039.8873879393764 944.5956826676688 -259.5848518333054
  endloop
endfacet
facet normal -0.6478892718704485 -0.6087614290087482 0.45787445216610095
  outer loop
    vertex 1038.7331117073054 944.5956826676688 -261.21814494235724
    vertex 1039.6602723345857 944.9581195347454 -259.42434534301947
    vertex 1038.505996102515 944.9581195347454 -261.05763845207133
  endloop
endfacet
facet normal -0.4971429235282858 -0.7933533402911981 0.3513394242531681
  outer loop
    vertex 1040.1833707581072 944.3175750781226 -259.7940279639517
    vertex 1038.7331117073054 944.5956826676688 -261.21814494235724
    vertex 1039.0290945260365 944.3175750781226 -261.42732107300355
  endloop
endfacet
facet normal -0.4971429235282858 -0.7933533402911981 0.3513394242531681
  outer loop
    vertex 1038.7331117073054 944.5956826676688 -261.21814494235724
    vertex 1040.1833707581072 944.3175750781226 -259.7940279639517
    vertex 1039.8873879393764 944.5956826676688 -259.5848518333054
  endloop
endfacet
facet normal -0.31251710651499 -0.9238795325113442 0.2208611951930869
  outer loop
    vertex 1040.5280500508175 944.1427493387395 -260.0376187273347
    vertex 1039.0290945260365 944.3175750781226 -261.42732107300355
    vertex 1039.3737738187465 944.1427493387395 -261.67091183638655
  endloop
endfacet
facet normal -0.31251710651499 -0.9238795325113442 0.2208611951930869
  outer loop
    vertex 1039.0290945260365 944.3175750781226 -261.42732107300355
    vertex 1040.5280500508175 944.1427493387395 -260.0376187273347
    vertex 1040.1833707581072 944.3175750781226 -259.7940279639517
  endloop
endfacet
facet normal -0.10659376515194749 -0.9914448613738017 0.07533164067119993
  outer loop
    vertex 1040.8979364933175 944.0831195347454 -260.2990238154827
    vertex 1039.3737738187465 944.1427493387395 -261.67091183638655
    vertex 1039.7436602612468 944.0831195347454 -261.9323169245346
  endloop
endfacet
facet normal -0.10659376515194749 -0.9914448613738017 0.07533164067119993
  outer loop
    vertex 1039.3737738187465 944.1427493387395 -261.67091183638655
    vertex 1040.8979364933175 944.0831195347454 -260.2990238154827
    vertex 1040.5280500508175 944.1427493387395 -260.0376187273347
  endloop
endfacet
facet normal 0.1065937651519475 -0.9914448613738017 -0.0753316406711999
  outer loop
    vertex 1041.2678229358178 944.1427493387395 -260.5604289036307
    vertex 1039.7436602612468 944.0831195347454 -261.9323169245346
    vertex 1040.1135467037468 944.1427493387395 -262.19372201268254
  endloop
endfacet
facet normal 0.1065937651519475 -0.9914448613738017 -0.0753316406711999
  outer loop
    vertex 1039.7436602612468 944.0831195347454 -261.9323169245346
    vertex 1041.2678229358178 944.1427493387395 -260.5604289036307
    vertex 1040.8979364933175 944.0831195347454 -260.2990238154827
  endloop
endfacet
facet normal 0.31251710651499 -0.9238795325113442 -0.2208611951930869
  outer loop
    vertex 1041.6125022285278 944.3175750781226 -260.8040196670137
    vertex 1040.1135467037468 944.1427493387395 -262.19372201268254
    vertex 1040.458225996457 944.3175750781226 -262.43731277606554
  endloop
endfacet
facet normal 0.31251710651499 -0.9238795325113442 -0.2208611951930869
  outer loop
    vertex 1040.1135467037468 944.1427493387395 -262.19372201268254
    vertex 1041.6125022285278 944.3175750781226 -260.8040196670137
    vertex 1041.2678229358178 944.1427493387395 -260.5604289036307
  endloop
endfacet
facet normal 0.4971429235282858 -0.7933533402911981 -0.3513394242531681
  outer loop
    vertex 1041.9084850472589 944.5956826676688 -261.01319579766
    vertex 1040.458225996457 944.3175750781226 -262.43731277606554
    vertex 1040.754208815188 944.5956826676688 -262.64648890671185
  endloop
endfacet
facet normal 0.4971429235282858 -0.7933533402911981 -0.3513394242531681
  outer loop
    vertex 1040.458225996457 944.3175750781226 -262.43731277606554
    vertex 1041.9084850472589 944.5956826676688 -261.01319579766
    vertex 1041.6125022285278 944.3175750781226 -260.8040196670137
  endloop
endfacet
facet normal 0.6478892718704485 -0.6087614290087482 -0.45787445216610095
  outer loop
    vertex 1040.9813244199786 944.9581195347454 -262.8069953969978
    vertex 1041.9084850472589 944.5956826676688 -261.01319579766
    vertex 1040.754208815188 944.5956826676688 -262.64648890671185
  endloop
endfacet
facet normal 0.6478892718704485 -0.6087614290087482 -0.45787445216610095
  outer loop
    vertex 1041.9084850472589 944.5956826676688 -261.01319579766
    vertex 1040.9813244199786 944.9581195347454 -262.8069953969978
    vertex 1042.1356006520493 944.9581195347454 -261.17370228794596
  endloop
endfacet
facet normal 0.7544830370223581 -0.3826834323650919 -0.5332060928372739
  outer loop
    vertex 1041.1240952576882 945.3801862058158 -262.9078939948598
    vertex 1042.1356006520493 944.9581195347454 -261.17370228794596
    vertex 1040.9813244199786 944.9581195347454 -262.8069953969978
  endloop
endfacet
facet normal 0.7544830370223581 -0.3826834323650919 -0.5332060928372739
  outer loop
    vertex 1042.1356006520493 944.9581195347454 -261.17370228794596
    vertex 1041.1240952576882 945.3801862058158 -262.9078939948598
    vertex 1042.2783714897591 945.3801862058158 -261.27460088580796
  endloop
endfacet
facet normal 0.8096600300433603 -0.1305261922199486 -0.5722006194463146
  outer loop
    vertex 1041.172791731667 945.8331195347453 -262.94230862759656
    vertex 1042.2783714897591 945.3801862058158 -261.27460088580796
    vertex 1041.1240952576882 945.3801862058158 -262.9078939948598
  endloop
endfacet
facet normal 0.8096600300433603 -0.1305261922199486 -0.5722006194463146
  outer loop
    vertex 1042.2783714897591 945.3801862058158 -261.27460088580796
    vertex 1041.172791731667 945.8331195347453 -262.94230862759656
    vertex 1042.3270679637378 945.8331195347453 -261.3090155185447
  endloop
endfacet
facet normal 0.8096600300433603 0.1305261922199486 -0.5722006194463146
  outer loop
    vertex 1041.1240952576882 946.2860528636747 -262.9078939948598
    vertex 1042.3270679637378 945.8331195347453 -261.3090155185447
    vertex 1041.172791731667 945.8331195347453 -262.94230862759656
  endloop
endfacet
facet normal 0.8096600300433603 0.1305261922199486 -0.5722006194463146
  outer loop
    vertex 1042.3270679637378 945.8331195347453 -261.3090155185447
    vertex 1041.1240952576882 946.2860528636747 -262.9078939948598
    vertex 1042.2783714897591 946.2860528636747 -261.27460088580796
  endloop
endfacet
facet normal 0.7544830370223581 0.3826834323650919 -0.5332060928372739
  outer loop
    vertex 1040.9813244199786 946.7081195347453 -262.8069953969978
    vertex 1042.2783714897591 946.2860528636747 -261.27460088580796
    vertex 1041.1240952576882 946.2860528636747 -262.9078939948598
  endloop
endfacet
facet normal 0.7544830370223581 0.3826834323650919 -0.5332060928372739
  outer loop
    vertex 1042.2783714897591 946.2860528636747 -261.27460088580796
    vertex 1040.9813244199786 946.7081195347453 -262.8069953969978
    vertex 1042.1356006520493 946.7081195347453 -261.17370228794596
  endloop
endfacet
facet normal 0.6478892718704485 0.6087614290087482 -0.45787445216610095
  outer loop
    vertex 1040.754208815188 947.0705564018218 -262.64648890671185
    vertex 1042.1356006520493 946.7081195347453 -261.17370228794596
    vertex 1040.9813244199786 946.7081195347453 -262.8069953969978
  endloop
endfacet
facet normal 0.6478892718704485 0.6087614290087482 -0.45787445216610095
  outer loop
    vertex 1042.1356006520493 946.7081195347453 -261.17370228794596
    vertex 1040.754208815188 947.0705564018218 -262.64648890671185
    vertex 1041.9084850472589 947.0705564018218 -261.01319579766
  endloop
endfacet
facet normal 0.4971429235282858 0.7933533402911981 -0.3513394242531681
  outer loop
    vertex 1040.458225996457 947.3486639913681 -262.43731277606554
    vertex 1041.9084850472589 947.0705564018218 -261.01319579766
    vertex 1040.754208815188 947.0705564018218 -262.64648890671185
  endloop
endfacet
facet normal 0.4971429235282858 0.7933533402911981 -0.3513394242531681
  outer loop
    vertex 1041.9084850472589 947.0705564018218 -261.01319579766
    vertex 1040.458225996457 947.3486639913681 -262.43731277606554
    vertex 1041.6125022285278 947.3486639913681 -260.8040196670137
  endloop
endfacet
facet normal 0.31251710651499 0.9238795325113442 -0.2208611951930869
  outer loop
    vertex 1040.1135467037468 947.5234897307511 -262.19372201268254
    vertex 1041.6125022285278 947.3486639913681 -260.8040196670137
    vertex 1040.458225996457 947.3486639913681 -262.43731277606554
  endloop
endfacet
facet normal 0.31251710651499 0.9238795325113442 -0.2208611951930869
  outer loop
    vertex 1041.6125022285278 947.3486639913681 -260.8040196670137
    vertex 1040.1135467037468 947.5234897307511 -262.19372201268254
    vertex 1041.2678229358178 947.5234897307511 -260.5604289036307
  endloop
endfacet
facet normal 0.10659376515194749 0.9914448613738017 -0.07533164067119993
  outer loop
    vertex 1039.7436602612468 947.5831195347453 -261.9323169245346
    vertex 1041.2678229358178 947.5234897307511 -260.5604289036307
    vertex 1040.1135467037468 947.5234897307511 -262.19372201268254
  endloop
endfacet
facet normal 0.10659376515194749 0.9914448613738017 -0.07533164067119993
  outer loop
    vertex 1041.2678229358178 947.5234897307511 -260.5604289036307
    vertex 1039.7436602612468 947.5831195347453 -261.9323169245346
    vertex 1040.8979364933175 947.5831195347453 -260.2990238154827
  endloop
endfacet
facet normal -0.1065937651519475 0.9914448613738017 0.0753316406711999
  outer loop
    vertex 1039.3737738187465 947.5234897307511 -261.67091183638655
    vertex 1040.8979364933175 947.5831195347453 -260.2990238154827
    vertex 1039.7436602612468 947.5831195347453 -261.9323169245346
  endloop
endfacet
facet normal -0.1065937651519475 0.9914448613738017 0.0753316406711999
  outer loop
    vertex 1040.8979364933175 947.5831195347453 -260.2990238154827
    vertex 1039.3737738187465 947.5234897307511 -261.67091183638655
    vertex 1040.5280500508175 947.5234897307511 -260.0376187273347
  endloop
endfacet
facet normal -0.31251710651499 0.9238795325113442 0.2208611951930869
  outer loop
    vertex 1039.0290945260365 947.3486639913681 -261.42732107300355
    vertex 1040.5280500508175 947.5234897307511 -260.0376187273347
    vertex 1039.3737738187465 947.5234897307511 -261.67091183638655
  endloop
endfacet
facet normal -0.31251710651499 0.9238795325113442 0.2208611951930869
  outer loop
    vertex 1040.5280500508175 947.5234897307511 -260.0376187273347
    vertex 1039.0290945260365 947.3486639913681 -261.42732107300355
    vertex 1040.1833707581072 947.3486639913681 -259.7940279639517
  endloop
endfacet
facet normal -0.4971429235282858 0.7933533402911981 0.3513394242531681
  outer loop
    vertex 1038.7331117073054 947.0705564018218 -261.21814494235724
    vertex 1040.1833707581072 947.3486639913681 -259.7940279639517
    vertex 1039.0290945260365 947.3486639913681 -261.42732107300355
  endloop
endfacet
facet normal -0.4971429235282858 0.7933533402911981 0.3513394242531681
  outer loop
    vertex 1040.1833707581072 947.3486639913681 -259.7940279639517
    vertex 1038.7331117073054 947.0705564018218 -261.21814494235724
    vertex 1039.8873879393764 947.0705564018218 -259.5848518333054
  endloop
endfacet
facet normal -0.6478892718704485 0.6087614290087482 0.45787445216610095
  outer loop
    vertex 1039.8873879393764 947.0705564018218 -259.5848518333054
    vertex 1038.505996102515 946.7081195347453 -261.05763845207133
    vertex 1039.6602723345857 946.7081195347453 -259.42434534301947
  endloop
endfacet
facet normal -0.6478892718704485 0.6087614290087482 0.45787445216610095
  outer loop
    vertex 1038.505996102515 946.7081195347453 -261.05763845207133
    vertex 1039.8873879393764 947.0705564018218 -259.5848518333054
    vertex 1038.7331117073054 947.0705564018218 -261.21814494235724
  endloop
endfacet
endsolid GEEETech_Prusa_i3x_Acrylic_-_Front_Power_Switch
