solid OpenSCAD_Model
  facet normal 0 0 1
    outer loop
      vertex -63 47 10
      vertex -60.011 48.2091 10
      vertex -60.0979 48.618 10
    endloop
  endfacet
  facet normal 0 0 1
    outer loop
      vertex -59.989 43.2485 10
      vertex -60.011 43.2266 10
      vertex -59.989 37.4909 10
    endloop
  endfacet
  facet normal 0 0 1
    outer loop
      vertex -55 16 10
      vertex -63 25 10
      vertex -62.9325 10.6066 10
    endloop
  endfacet
  facet normal 0 0 1
    outer loop
      vertex -62.9325 10.6066 10
      vertex -63 25 10
      vertex -63 10.5391 10
    endloop
  endfacet
  facet normal 0 0 1
    outer loop
      vertex -52.5172 8.35879 10
      vertex -51.6188 -0.707107 10
      vertex -50.6987 6.33912 10
    endloop
  endfacet
  facet normal -0 0 1
    outer loop
      vertex -62.9325 10.6066 10
      vertex -52.5172 8.35879 10
      vertex -53.8761 10.7124 10
    endloop
  endfacet
  facet normal 0 0 1
    outer loop
      vertex -62.9325 10.6066 10
      vertex -53.8761 10.7124 10
      vertex -54.7159 13.2971 10
    endloop
  endfacet
  facet normal 0 0 1
    outer loop
      vertex -63 25 10
      vertex -58.8135 35.8729 10
      vertex -59.1756 36.082 10
    endloop
  endfacet
  facet normal 0 0 1
    outer loop
      vertex -52.5172 23.6412 10
      vertex -63 25 10
      vertex -53.8761 21.2876 10
    endloop
  endfacet
  facet normal 0 0 1
    outer loop
      vertex -53.8761 21.2876 10
      vertex -63 25 10
      vertex -54.7159 18.7029 10
    endloop
  endfacet
  facet normal 0 0 1
    outer loop
      vertex -63 25 10
      vertex -55 16 10
      vertex -54.7159 18.7029 10
    endloop
  endfacet
  facet normal 0 0 1
    outer loop
      vertex -63 25 10
      vertex -59.1756 36.082 10
      vertex -59.4863 36.3617 10
    endloop
  endfacet
  facet normal 0 0 1
    outer loop
      vertex -63 25 10
      vertex -59.4863 36.3617 10
      vertex -59.732 36.7 10
    endloop
  endfacet
  facet normal 0 0 1
    outer loop
      vertex -63 25 10
      vertex -59.732 36.7 10
      vertex -59.9021 37.082 10
    endloop
  endfacet
  facet normal 0 0 1
    outer loop
      vertex -60.011 48.2091 10
      vertex -63 47 10
      vertex -60.011 43.2266 10
    endloop
  endfacet
  facet normal 0 0 1
    outer loop
      vertex -63 47 10
      vertex -60.0979 48.618 10
      vertex -60.2679 49 10
    endloop
  endfacet
  facet normal 0 0 1
    outer loop
      vertex -63 47 10
      vertex -60.2679 49 10
      vertex -60.5137 49.3383 10
    endloop
  endfacet
  facet normal 0 0 1
    outer loop
      vertex -63 47 10
      vertex -60.5137 49.3383 10
      vertex -60.8244 49.618 10
    endloop
  endfacet
  facet normal 0 0 1
    outer loop
      vertex -63 47 10
      vertex -60.8244 49.618 10
      vertex -61.1865 49.8271 10
    endloop
  endfacet
  facet normal 0 0 1
    outer loop
      vertex -63 47 10
      vertex -61.1865 49.8271 10
      vertex -61.5842 49.9563 10
    endloop
  endfacet
  facet normal 0 0 1
    outer loop
      vertex -63 47 10
      vertex -61.5842 49.9563 10
      vertex -62 50 10
    endloop
  endfacet
  facet normal 0 0 1
    outer loop
      vertex -52.5172 8.35879 10
      vertex -62.9325 10.6066 10
      vertex -51.6188 -0.707107 10
    endloop
  endfacet
  facet normal 0 0 1
    outer loop
      vertex -55 16 10
      vertex -62.9325 10.6066 10
      vertex -54.7159 13.2971 10
    endloop
  endfacet
  facet normal 0 0 1
    outer loop
      vertex -63 25 10
      vertex -59.9021 37.082 10
      vertex -59.989 37.4909 10
    endloop
  endfacet
  facet normal 0 0 1
    outer loop
      vertex -60.011 43.2266 10
      vertex -63 47 10
      vertex -59.989 37.4909 10
    endloop
  endfacet
  facet normal 0 0 1
    outer loop
      vertex -63 25 10
      vertex -59.989 37.4909 10
      vertex -63 47 10
    endloop
  endfacet
  facet normal 0 0 1
    outer loop
      vertex -62 50 10
      vertex -78.5 47 10
      vertex -63 47 10
    endloop
  endfacet
  facet normal -0 0 1
    outer loop
      vertex -79.5 50 10
      vertex -78.5 47 10
      vertex -62 50 10
    endloop
  endfacet
  facet normal -0 0 1
    outer loop
      vertex -79.9158 49.9563 10
      vertex -78.5 47 10
      vertex -79.5 50 10
    endloop
  endfacet
  facet normal -0 0 1
    outer loop
      vertex -80.3135 49.8271 10
      vertex -78.5 47 10
      vertex -79.9158 49.9563 10
    endloop
  endfacet
  facet normal -0 0 1
    outer loop
      vertex -80.6756 49.618 10
      vertex -78.5 47 10
      vertex -80.3135 49.8271 10
    endloop
  endfacet
  facet normal -0 0 1
    outer loop
      vertex -80.9863 49.3383 10
      vertex -78.5 47 10
      vertex -80.6756 49.618 10
    endloop
  endfacet
  facet normal -0 0 1
    outer loop
      vertex -81.232 49 10
      vertex -78.5 47 10
      vertex -80.9863 49.3383 10
    endloop
  endfacet
  facet normal -0 0 1
    outer loop
      vertex -81.4021 48.618 10
      vertex -78.5 47 10
      vertex -81.232 49 10
    endloop
  endfacet
  facet normal 0 0 1
    outer loop
      vertex -78.5 47 10
      vertex -81.4021 48.618 10
      vertex -81.489 48.2091 10
    endloop
  endfacet
  facet normal 0 0 1
    outer loop
      vertex -81.489 32 10
      vertex -78.5 47 10
      vertex -81.489 48.2091 10
    endloop
  endfacet
  facet normal 0 0 1
    outer loop
      vertex -78.5 47 10
      vertex -81.489 32 10
      vertex -78.5 32 10
    endloop
  endfacet
  facet normal -0 0 1
    outer loop
      vertex -37.2645 45.467 10
      vertex -34.6482 44.5477 10
      vertex -36.7696 46.669 10
    endloop
  endfacet
  facet normal 0 0 1
    outer loop
      vertex -34.6482 44.5477 10
      vertex -37.2645 45.467 10
      vertex -35.4968 43.6992 10
    endloop
  endfacet
  facet normal -0 0 1
    outer loop
      vertex -38.1838 46.669 10
      vertex -37.2645 45.467 10
      vertex -36.7696 46.669 10
    endloop
  endfacet
  facet normal 0 0 1
    outer loop
      vertex -38.1838 46.669 10
      vertex -38.5373 44.1942 10
      vertex -37.2645 45.467 10
    endloop
  endfacet
  facet normal 0 0 1
    outer loop
      vertex -36.7696 36.7696 10
      vertex -43.3589 28.9288 10
      vertex -40.6411 28.9288 10
    endloop
  endfacet
  facet normal 0 0 1
    outer loop
      vertex -48.4368 36.416 10
      vertex -38.5373 44.1942 10
      vertex -38.1838 46.669 10
    endloop
  endfacet
  facet normal 0 0 1
    outer loop
      vertex -36.7696 36.7696 10
      vertex -48.4368 36.416 10
      vertex -43.3589 28.9288 10
    endloop
  endfacet
  facet normal 0 0 1
    outer loop
      vertex -43.3589 28.9288 10
      vertex -48.4368 36.416 10
      vertex -46.0172 28.3637 10
    endloop
  endfacet
  facet normal 0 0 1
    outer loop
      vertex -48.5137 36.3617 10
      vertex -48.4368 36.416 10
      vertex -48.4585 36.4377 10
    endloop
  endfacet
  facet normal 0 0 1
    outer loop
      vertex -48.8244 36.082 10
      vertex -48.4368 36.416 10
      vertex -48.5137 36.3617 10
    endloop
  endfacet
  facet normal 0 0 1
    outer loop
      vertex -48.4368 36.416 10
      vertex -48.8244 36.082 10
      vertex -46.0172 28.3637 10
    endloop
  endfacet
  facet normal -0 0 1
    outer loop
      vertex -49.1865 35.8729 10
      vertex -46.0172 28.3637 10
      vertex -48.8244 36.082 10
    endloop
  endfacet
  facet normal -0 0 1
    outer loop
      vertex -49.5842 35.7437 10
      vertex -46.0172 28.3637 10
      vertex -49.1865 35.8729 10
    endloop
  endfacet
  facet normal 0 0 1
    outer loop
      vertex -46.0172 28.3637 10
      vertex -49.5842 35.7437 10
      vertex -48.5 27.2583 10
    endloop
  endfacet
  facet normal -0 0 1
    outer loop
      vertex -50 35.7 10
      vertex -48.5 27.2583 10
      vertex -49.5842 35.7437 10
    endloop
  endfacet
  facet normal 0 0 1
    outer loop
      vertex -50 35.7 10
      vertex -50.6987 25.6609 10
      vertex -48.5 27.2583 10
    endloop
  endfacet
  facet normal -0 0 1
    outer loop
      vertex -58 35.7 10
      vertex -50.6987 25.6609 10
      vertex -50 35.7 10
    endloop
  endfacet
  facet normal 0 0 1
    outer loop
      vertex -50.6987 25.6609 10
      vertex -58 35.7 10
      vertex -52.5172 23.6412 10
    endloop
  endfacet
  facet normal 0 0 1
    outer loop
      vertex -63 25 10
      vertex -58 35.7 10
      vertex -58.4158 35.7437 10
    endloop
  endfacet
  facet normal 0 0 1
    outer loop
      vertex -63 25 10
      vertex -58.4158 35.7437 10
      vertex -58.8135 35.8729 10
    endloop
  endfacet
  facet normal 0 0 1
    outer loop
      vertex -58 35.7 10
      vertex -63 25 10
      vertex -52.5172 23.6412 10
    endloop
  endfacet
  facet normal 0 0 1
    outer loop
      vertex -38.5373 44.1942 10
      vertex -36.7696 36.7696 10
      vertex -33.9411 39.598 10
    endloop
  endfacet
  facet normal 0 0 1
    outer loop
      vertex -48.4368 36.416 10
      vertex -36.7696 36.7696 10
      vertex -38.5373 44.1942 10
    endloop
  endfacet
  facet normal 0 0 1
    outer loop
      vertex -36.7696 36.7696 10
      vertex -40.6411 28.9288 10
      vertex -37.9828 28.3637 10
    endloop
  endfacet
  facet normal 0 0 1
    outer loop
      vertex -5.3033 5.3033 10
      vertex -15.1093 8.03956 10
      vertex -15 7 10
    endloop
  endfacet
  facet normal 0 0 1
    outer loop
      vertex -5.3033 5.3033 10
      vertex -15.4323 9.03368 10
      vertex -15.1093 8.03956 10
    endloop
  endfacet
  facet normal 0 0 1
    outer loop
      vertex -5.3033 5.3033 10
      vertex -15.9549 9.93893 10
      vertex -15.4323 9.03368 10
    endloop
  endfacet
  facet normal 0 0 1
    outer loop
      vertex -5.3033 5.3033 10
      vertex -16.6543 10.7157 10
      vertex -15.9549 9.93893 10
    endloop
  endfacet
  facet normal 0 0 1
    outer loop
      vertex -5.3033 5.3033 10
      vertex -17.5 11.3301 10
      vertex -16.6543 10.7157 10
    endloop
  endfacet
  facet normal 0 0 1
    outer loop
      vertex -24.0451 9.93893 10
      vertex -30.1239 10.7124 10
      vertex -24.5677 9.03368 10
    endloop
  endfacet
  facet normal -0 0 1
    outer loop
      vertex -30.1239 10.7124 10
      vertex -24.0451 9.93893 10
      vertex -29.2841 13.2971 10
    endloop
  endfacet
  facet normal 0 0 1
    outer loop
      vertex -23.3457 10.7157 10
      vertex -29.2841 13.2971 10
      vertex -24.0451 9.93893 10
    endloop
  endfacet
  facet normal -0 0 1
    outer loop
      vertex -29.2841 13.2971 10
      vertex -23.3457 10.7157 10
      vertex -29 16 10
    endloop
  endfacet
  facet normal 0 0 1
    outer loop
      vertex -22.5 11.3301 10
      vertex -29 16 10
      vertex -23.3457 10.7157 10
    endloop
  endfacet
  facet normal 0 0 1
    outer loop
      vertex -21.5451 11.7553 10
      vertex -29 16 10
      vertex -22.5 11.3301 10
    endloop
  endfacet
  facet normal 0 0 1
    outer loop
      vertex -29.2841 18.7029 10
      vertex -21.5451 11.7553 10
      vertex -20.5226 11.9726 10
    endloop
  endfacet
  facet normal 0 0 1
    outer loop
      vertex -29.2841 18.7029 10
      vertex -20.5226 11.9726 10
      vertex -19.4774 11.9726 10
    endloop
  endfacet
  facet normal 0 0 1
    outer loop
      vertex -30.1239 21.2876 10
      vertex -19.4774 11.9726 10
      vertex -18.4549 11.7553 10
    endloop
  endfacet
  facet normal 0 0 1
    outer loop
      vertex -21.5451 11.7553 10
      vertex -29.2841 18.7029 10
      vertex -29 16 10
    endloop
  endfacet
  facet normal 0 0 1
    outer loop
      vertex -31.4828 23.6412 10
      vertex -18.4549 11.7553 10
      vertex -17.5 11.3301 10
    endloop
  endfacet
  facet normal 0 0 1
    outer loop
      vertex -36.7696 36.7696 10
      vertex -17.5 11.3301 10
      vertex -5.3033 5.3033 10
    endloop
  endfacet
  facet normal 0 0 1
    outer loop
      vertex -19.4774 11.9726 10
      vertex -30.1239 21.2876 10
      vertex -29.2841 18.7029 10
    endloop
  endfacet
  facet normal 0 0 1
    outer loop
      vertex -18.4549 11.7553 10
      vertex -31.4828 23.6412 10
      vertex -30.1239 21.2876 10
    endloop
  endfacet
  facet normal 0 0 1
    outer loop
      vertex -17.5 11.3301 10
      vertex -36.7696 36.7696 10
      vertex -31.4828 23.6412 10
    endloop
  endfacet
  facet normal 0 0 1
    outer loop
      vertex -31.4828 23.6412 10
      vertex -36.7696 36.7696 10
      vertex -33.3013 25.6609 10
    endloop
  endfacet
  facet normal 0 0 1
    outer loop
      vertex -36.7696 36.7696 10
      vertex -35.5 27.2583 10
      vertex -33.3013 25.6609 10
    endloop
  endfacet
  facet normal 0 0 1
    outer loop
      vertex -35.5 27.2583 10
      vertex -36.7696 36.7696 10
      vertex -37.9828 28.3637 10
    endloop
  endfacet
  facet normal 0 0 1
    outer loop
      vertex 4.19239 5.70711 10
      vertex 3.39411 4.80833 10
      vertex 4.19239 4.19239 10
    endloop
  endfacet
  facet normal -0 0 1
    outer loop
      vertex 1.62635 6.57609 10
      vertex 4.19239 5.70711 10
      vertex 2.47487 7.42462 10
    endloop
  endfacet
  facet normal 0 0 1
    outer loop
      vertex 4.19239 5.70711 10
      vertex 1.62635 6.57609 10
      vertex 3.39411 4.80833 10
    endloop
  endfacet
  facet normal 0 0 1
    outer loop
      vertex 2.12132 3.53553 10
      vertex 4.19239 4.19239 10
      vertex 3.39411 4.80833 10
    endloop
  endfacet
  facet normal -0 0 1
    outer loop
      vertex 2.12132 3.53553 10
      vertex -0.811183 -0.811183 10
      vertex 4.19239 4.19239 10
    endloop
  endfacet
  facet normal -0 0 1
    outer loop
      vertex -5.3033 5.3033 10
      vertex 2.12132 3.53553 10
      vertex -2.47487 8.13173 10
    endloop
  endfacet
  facet normal 0 0 1
    outer loop
      vertex 2.12132 3.53553 10
      vertex -5.3033 5.3033 10
      vertex -0.811183 -0.811183 10
    endloop
  endfacet
  facet normal -0 0 1
    outer loop
      vertex -15.1093 5.96044 10
      vertex -5.3033 5.3033 10
      vertex -15 7 10
    endloop
  endfacet
  facet normal 0 0 1
    outer loop
      vertex -15.4323 4.96632 10
      vertex -5.3033 5.3033 10
      vertex -15.1093 5.96044 10
    endloop
  endfacet
  facet normal 0 0 1
    outer loop
      vertex -15.9549 4.06107 10
      vertex -5.3033 5.3033 10
      vertex -15.4323 4.96632 10
    endloop
  endfacet
  facet normal 0 0 1
    outer loop
      vertex -16.6543 3.28428 10
      vertex -5.3033 5.3033 10
      vertex -15.9549 4.06107 10
    endloop
  endfacet
  facet normal 0 0 1
    outer loop
      vertex -5.3033 5.3033 10
      vertex -16.6543 3.28428 10
      vertex -0.811183 -0.811183 10
    endloop
  endfacet
  facet normal -0 0 1
    outer loop
      vertex -17.5 2.66987 10
      vertex -0.811183 -0.811183 10
      vertex -16.6543 3.28428 10
    endloop
  endfacet
  facet normal -0 0 1
    outer loop
      vertex -18.4549 2.24472 10
      vertex -0.811183 -0.811183 10
      vertex -17.5 2.66987 10
    endloop
  endfacet
  facet normal -0 0 1
    outer loop
      vertex -19.4774 2.02739 10
      vertex -0.811183 -0.811183 10
      vertex -18.4549 2.24472 10
    endloop
  endfacet
  facet normal -0 0 1
    outer loop
      vertex -20.5226 2.02739 10
      vertex -0.811183 -0.811183 10
      vertex -19.4774 2.02739 10
    endloop
  endfacet
  facet normal 0 0 1
    outer loop
      vertex -24.5677 9.03368 10
      vertex -30.1239 10.7124 10
      vertex -24.8907 8.03956 10
    endloop
  endfacet
  facet normal -0 0 1
    outer loop
      vertex -31.4828 8.35879 10
      vertex -24.8907 8.03956 10
      vertex -30.1239 10.7124 10
    endloop
  endfacet
  facet normal 0 0 1
    outer loop
      vertex -24.8907 8.03956 10
      vertex -31.4828 8.35879 10
      vertex -25 7 10
    endloop
  endfacet
  facet normal 0 0 1
    outer loop
      vertex -25 7 10
      vertex -31.4828 8.35879 10
      vertex -24.8907 5.96044 10
    endloop
  endfacet
  facet normal -0 0 1
    outer loop
      vertex -33.3013 6.33912 10
      vertex -24.8907 5.96044 10
      vertex -31.4828 8.35879 10
    endloop
  endfacet
  facet normal 0 0 1
    outer loop
      vertex -24.8907 5.96044 10
      vertex -33.3013 6.33912 10
      vertex -24.5677 4.96632 10
    endloop
  endfacet
  facet normal 0 0 1
    outer loop
      vertex -24.5677 4.96632 10
      vertex -33.3013 6.33912 10
      vertex -24.0451 4.06107 10
    endloop
  endfacet
  facet normal -0 0 1
    outer loop
      vertex -35.5 4.74167 10
      vertex -24.0451 4.06107 10
      vertex -33.3013 6.33912 10
    endloop
  endfacet
  facet normal 0 0 1
    outer loop
      vertex -24.0451 4.06107 10
      vertex -35.5 4.74167 10
      vertex -23.3457 3.28428 10
    endloop
  endfacet
  facet normal 0 0 1
    outer loop
      vertex -23.3457 3.28428 10
      vertex -35.5 4.74167 10
      vertex -22.5 2.66987 10
    endloop
  endfacet
  facet normal -0 0 1
    outer loop
      vertex -37.9828 3.63626 10
      vertex -22.5 2.66987 10
      vertex -35.5 4.74167 10
    endloop
  endfacet
  facet normal 0 0 1
    outer loop
      vertex -22.5 2.66987 10
      vertex -37.9828 3.63626 10
      vertex -21.5451 2.24472 10
    endloop
  endfacet
  facet normal -0 0 1
    outer loop
      vertex -40.6411 3.07121 10
      vertex -21.5451 2.24472 10
      vertex -37.9828 3.63626 10
    endloop
  endfacet
  facet normal 0 0 1
    outer loop
      vertex -51.7229 -0.811183 10
      vertex -21.5451 2.24472 10
      vertex -40.6411 3.07121 10
    endloop
  endfacet
  facet normal 0 0 1
    outer loop
      vertex -21.5451 2.24472 10
      vertex -51.7229 -0.811183 10
      vertex -20.5226 2.02739 10
    endloop
  endfacet
  facet normal 0 0 1
    outer loop
      vertex -51.7229 -0.811183 10
      vertex -40.6411 3.07121 10
      vertex -43.3589 3.07121 10
    endloop
  endfacet
  facet normal 0 0 1
    outer loop
      vertex -51.6188 -0.707107 10
      vertex -48.5 4.74167 10
      vertex -50.6987 6.33912 10
    endloop
  endfacet
  facet normal 0 0 1
    outer loop
      vertex -51.6188 -0.707107 10
      vertex -46.0172 3.63626 10
      vertex -48.5 4.74167 10
    endloop
  endfacet
  facet normal 0 0 1
    outer loop
      vertex -51.6188 -0.707107 10
      vertex -43.3589 3.07121 10
      vertex -46.0172 3.63626 10
    endloop
  endfacet
  facet normal 0 0 1
    outer loop
      vertex -51.7229 -0.811183 10
      vertex -43.3589 3.07121 10
      vertex -51.6188 -0.707107 10
    endloop
  endfacet
  facet normal 0 0 1
    outer loop
      vertex -20.5226 2.02739 10
      vertex -51.7229 -0.811183 10
      vertex -0.811183 -0.811183 10
    endloop
  endfacet
  facet normal 0 0 -1
    outer loop
      vertex 4.19239 4.19239 0
      vertex 3.44437 4.75807 0
      vertex 4.19239 5.70711 0
    endloop
  endfacet
  facet normal -0 0 -1
    outer loop
      vertex 4.19239 4.19239 0
      vertex 2.17157 3.48528 0
      vertex 3.44437 4.75807 0
    endloop
  endfacet
  facet normal 0 0 -1
    outer loop
      vertex -0.811183 -0.811183 0
      vertex 2.17157 3.48528 0
      vertex 4.19239 4.19239 0
    endloop
  endfacet
  facet normal 0 0 -1
    outer loop
      vertex -5.3033 5.3033 0
      vertex 2.17157 3.48528 0
      vertex -0.811183 -0.811183 0
    endloop
  endfacet
  facet normal 0 0 -1
    outer loop
      vertex 2.17157 3.48528 0
      vertex -5.3033 5.3033 0
      vertex -2.47487 8.13173 0
    endloop
  endfacet
  facet normal 0 0 -1
    outer loop
      vertex -16.6543 3.28428 0
      vertex -5.3033 5.3033 0
      vertex -0.811183 -0.811183 0
    endloop
  endfacet
  facet normal 0 0 -1
    outer loop
      vertex -5.3033 5.3033 0
      vertex -15.1093 5.96044 0
      vertex -15 7 0
    endloop
  endfacet
  facet normal -0 0 -1
    outer loop
      vertex -5.3033 5.3033 0
      vertex -15.4323 4.96632 0
      vertex -15.1093 5.96044 0
    endloop
  endfacet
  facet normal 0 0 -1
    outer loop
      vertex -5.3033 5.3033 0
      vertex -15.9549 4.06107 0
      vertex -15.4323 4.96632 0
    endloop
  endfacet
  facet normal 0 0 -1
    outer loop
      vertex -5.3033 5.3033 0
      vertex -16.6543 3.28428 0
      vertex -15.9549 4.06107 0
    endloop
  endfacet
  facet normal 0 0 -1
    outer loop
      vertex -0.811183 -0.811183 0
      vertex -17.5 2.66987 0
      vertex -16.6543 3.28428 0
    endloop
  endfacet
  facet normal 0 0 -1
    outer loop
      vertex -0.811183 -0.811183 0
      vertex -18.4549 2.24472 0
      vertex -17.5 2.66987 0
    endloop
  endfacet
  facet normal 0 0 -1
    outer loop
      vertex -0.811183 -0.811183 0
      vertex -19.4774 2.02739 0
      vertex -18.4549 2.24472 0
    endloop
  endfacet
  facet normal 0 0 -1
    outer loop
      vertex -0.811183 -0.811183 0
      vertex -20.5226 2.02739 0
      vertex -19.4774 2.02739 0
    endloop
  endfacet
  facet normal 0 0 -1
    outer loop
      vertex -31.4828 8.35879 0
      vertex -25 7 0
      vertex -24.8907 5.96044 0
    endloop
  endfacet
  facet normal 0 0 -1
    outer loop
      vertex -33.3013 6.33912 0
      vertex -24.8907 5.96044 0
      vertex -24.5677 4.96632 0
    endloop
  endfacet
  facet normal 0 0 -1
    outer loop
      vertex -25 7 0
      vertex -29.2841 13.2971 0
      vertex -29 16 0
    endloop
  endfacet
  facet normal 0 0 -1
    outer loop
      vertex -25 7 0
      vertex -30.1239 10.7124 0
      vertex -29.2841 13.2971 0
    endloop
  endfacet
  facet normal 0 0 -1
    outer loop
      vertex -33.3013 6.33912 0
      vertex -24.5677 4.96632 0
      vertex -24.0451 4.06107 0
    endloop
  endfacet
  facet normal 0 0 -1
    outer loop
      vertex -35.5 4.74167 0
      vertex -24.0451 4.06107 0
      vertex -23.3457 3.28428 0
    endloop
  endfacet
  facet normal 0 0 -1
    outer loop
      vertex -25 7 0
      vertex -31.4828 8.35879 0
      vertex -30.1239 10.7124 0
    endloop
  endfacet
  facet normal 0 0 -1
    outer loop
      vertex -35.5 4.74167 0
      vertex -23.3457 3.28428 0
      vertex -22.5 2.66987 0
    endloop
  endfacet
  facet normal 0 0 -1
    outer loop
      vertex -24.8907 5.96044 0
      vertex -33.3013 6.33912 0
      vertex -31.4828 8.35879 0
    endloop
  endfacet
  facet normal 0 0 -1
    outer loop
      vertex -37.9828 3.63626 0
      vertex -22.5 2.66987 0
      vertex -21.5451 2.24472 0
    endloop
  endfacet
  facet normal 0 0 -1
    outer loop
      vertex -24.0451 4.06107 0
      vertex -35.5 4.74167 0
      vertex -33.3013 6.33912 0
    endloop
  endfacet
  facet normal 0 0 -1
    outer loop
      vertex -51.7229 -0.811183 0
      vertex -21.5451 2.24472 0
      vertex -20.5226 2.02739 0
    endloop
  endfacet
  facet normal 0 0 -1
    outer loop
      vertex -22.5 2.66987 0
      vertex -37.9828 3.63626 0
      vertex -35.5 4.74167 0
    endloop
  endfacet
  facet normal 0 0 -1
    outer loop
      vertex -51.7229 -0.811183 0
      vertex -20.5226 2.02739 0
      vertex -0.811183 -0.811183 0
    endloop
  endfacet
  facet normal 0 0 -1
    outer loop
      vertex -21.5451 2.24472 0
      vertex -40.6411 3.07121 0
      vertex -37.9828 3.63626 0
    endloop
  endfacet
  facet normal -0 0 -1
    outer loop
      vertex -21.5451 2.24472 0
      vertex -51.7229 -0.811183 0
      vertex -40.6411 3.07121 0
    endloop
  endfacet
  facet normal -0 0 -1
    outer loop
      vertex -48.5 4.74167 0
      vertex -51.6188 -0.707107 0
      vertex -50.6987 6.33912 0
    endloop
  endfacet
  facet normal -0 0 -1
    outer loop
      vertex -46.0172 3.63626 0
      vertex -51.6188 -0.707107 0
      vertex -48.5 4.74167 0
    endloop
  endfacet
  facet normal -0 0 -1
    outer loop
      vertex -43.3589 3.07121 0
      vertex -51.6188 -0.707107 0
      vertex -46.0172 3.63626 0
    endloop
  endfacet
  facet normal -0 0 -1
    outer loop
      vertex -40.6411 3.07121 0
      vertex -51.7229 -0.811183 0
      vertex -43.3589 3.07121 0
    endloop
  endfacet
  facet normal 0 0 -1
    outer loop
      vertex -43.3589 3.07121 0
      vertex -51.7229 -0.811183 0
      vertex -51.6188 -0.707107 0
    endloop
  endfacet
  facet normal 0 0 -1
    outer loop
      vertex 1.62635 6.57609 0
      vertex 4.19239 5.70711 0
      vertex 3.44437 4.75807 0
    endloop
  endfacet
  facet normal 0 0 -1
    outer loop
      vertex 4.19239 5.70711 0
      vertex 1.62635 6.57609 0
      vertex 2.47487 7.42462 0
    endloop
  endfacet
  facet normal 0 0 -1
    outer loop
      vertex -15.1093 8.03956 0
      vertex -5.3033 5.3033 0
      vertex -15 7 0
    endloop
  endfacet
  facet normal 0 0 -1
    outer loop
      vertex -15.4323 9.03368 0
      vertex -5.3033 5.3033 0
      vertex -15.1093 8.03956 0
    endloop
  endfacet
  facet normal 0 0 -1
    outer loop
      vertex -15.9549 9.93893 0
      vertex -5.3033 5.3033 0
      vertex -15.4323 9.03368 0
    endloop
  endfacet
  facet normal 0 0 -1
    outer loop
      vertex -16.6543 10.7157 0
      vertex -5.3033 5.3033 0
      vertex -15.9549 9.93893 0
    endloop
  endfacet
  facet normal 0 0 -1
    outer loop
      vertex -17.5 11.3301 0
      vertex -5.3033 5.3033 0
      vertex -16.6543 10.7157 0
    endloop
  endfacet
  facet normal 0 0 -1
    outer loop
      vertex -29 16 0
      vertex -24.8907 8.03956 0
      vertex -25 7 0
    endloop
  endfacet
  facet normal 0 0 -1
    outer loop
      vertex -29 16 0
      vertex -24.5677 9.03368 0
      vertex -24.8907 8.03956 0
    endloop
  endfacet
  facet normal 0 0 -1
    outer loop
      vertex -29 16 0
      vertex -24.0451 9.93893 0
      vertex -24.5677 9.03368 0
    endloop
  endfacet
  facet normal 0 0 -1
    outer loop
      vertex -29 16 0
      vertex -23.3457 10.7157 0
      vertex -24.0451 9.93893 0
    endloop
  endfacet
  facet normal 0 0 -1
    outer loop
      vertex -29 16 0
      vertex -22.5 11.3301 0
      vertex -23.3457 10.7157 0
    endloop
  endfacet
  facet normal 0 0 -1
    outer loop
      vertex -29 16 0
      vertex -21.5451 11.7553 0
      vertex -22.5 11.3301 0
    endloop
  endfacet
  facet normal 0 0 -1
    outer loop
      vertex -29.2841 18.7029 0
      vertex -21.5451 11.7553 0
      vertex -29 16 0
    endloop
  endfacet
  facet normal 0 0 -1
    outer loop
      vertex -21.5451 11.7553 0
      vertex -29.2841 18.7029 0
      vertex -20.5226 11.9726 0
    endloop
  endfacet
  facet normal 0 0 -1
    outer loop
      vertex -20.5226 11.9726 0
      vertex -29.2841 18.7029 0
      vertex -19.4774 11.9726 0
    endloop
  endfacet
  facet normal 0 0 -1
    outer loop
      vertex -30.1239 21.2876 0
      vertex -19.4774 11.9726 0
      vertex -29.2841 18.7029 0
    endloop
  endfacet
  facet normal 0 0 -1
    outer loop
      vertex -19.4774 11.9726 0
      vertex -30.1239 21.2876 0
      vertex -18.4549 11.7553 0
    endloop
  endfacet
  facet normal 0 0 -1
    outer loop
      vertex -31.4828 23.6412 0
      vertex -18.4549 11.7553 0
      vertex -30.1239 21.2876 0
    endloop
  endfacet
  facet normal 0 0 -1
    outer loop
      vertex -18.4549 11.7553 0
      vertex -31.4828 23.6412 0
      vertex -17.5 11.3301 0
    endloop
  endfacet
  facet normal 0 0 -1
    outer loop
      vertex -36.7696 36.7696 0
      vertex -17.5 11.3301 0
      vertex -31.4828 23.6412 0
    endloop
  endfacet
  facet normal 0 0 -1
    outer loop
      vertex -36.7696 36.7696 0
      vertex -31.4828 23.6412 0
      vertex -33.3013 25.6609 0
    endloop
  endfacet
  facet normal 0 0 -1
    outer loop
      vertex -17.5 11.3301 0
      vertex -36.7696 36.7696 0
      vertex -5.3033 5.3033 0
    endloop
  endfacet
  facet normal 0 0 -1
    outer loop
      vertex -35.5 27.2583 0
      vertex -36.7696 36.7696 0
      vertex -33.3013 25.6609 0
    endloop
  endfacet
  facet normal 0 -0 -1
    outer loop
      vertex -36.7696 36.7696 0
      vertex -35.5 27.2583 0
      vertex -37.9828 28.3637 0
    endloop
  endfacet
  facet normal 0 0 -1
    outer loop
      vertex -36.7696 36.7696 0
      vertex -38.5876 44.2444 0
      vertex -33.9411 39.598 0
    endloop
  endfacet
  facet normal 0 0 -1
    outer loop
      vertex -40.6411 28.9288 0
      vertex -36.7696 36.7696 0
      vertex -37.9828 28.3637 0
    endloop
  endfacet
  facet normal 0 0 -1
    outer loop
      vertex -43.3589 28.9288 0
      vertex -36.7696 36.7696 0
      vertex -40.6411 28.9288 0
    endloop
  endfacet
  facet normal 0 0 -1
    outer loop
      vertex -37.3148 45.5172 0
      vertex -34.6482 44.5477 0
      vertex -35.4968 43.6992 0
    endloop
  endfacet
  facet normal 0 0 -1
    outer loop
      vertex -34.6482 44.5477 0
      vertex -37.3148 45.5172 0
      vertex -36.7696 46.669 0
    endloop
  endfacet
  facet normal 0 0 -1
    outer loop
      vertex -37.3148 45.5172 0
      vertex -38.1838 46.669 0
      vertex -36.7696 46.669 0
    endloop
  endfacet
  facet normal 0 0 -1
    outer loop
      vertex -38.5876 44.2444 0
      vertex -38.1838 46.669 0
      vertex -37.3148 45.5172 0
    endloop
  endfacet
  facet normal 0 0 -1
    outer loop
      vertex -36.7696 36.7696 0
      vertex -43.3589 28.9288 0
      vertex -48.4368 36.416 0
    endloop
  endfacet
  facet normal -0 0 -1
    outer loop
      vertex -36.7696 36.7696 0
      vertex -48.4368 36.416 0
      vertex -38.5876 44.2444 0
    endloop
  endfacet
  facet normal 0 0 -1
    outer loop
      vertex -48.4368 36.416 0
      vertex -43.3589 28.9288 0
      vertex -46.0172 28.3637 0
    endloop
  endfacet
  facet normal -0 0 -1
    outer loop
      vertex -38.5876 44.2444 0
      vertex -48.4368 36.416 0
      vertex -38.1838 46.669 0
    endloop
  endfacet
  facet normal 0 0 -1
    outer loop
      vertex -48.8244 36.082 0
      vertex -48.4368 36.416 0
      vertex -46.0172 28.3637 0
    endloop
  endfacet
  facet normal 0 0 -1
    outer loop
      vertex -49.5842 35.7437 0
      vertex -46.0172 28.3637 0
      vertex -48.5 27.2583 0
    endloop
  endfacet
  facet normal -0 0 -1
    outer loop
      vertex -48.4368 36.416 0
      vertex -48.5137 36.3617 0
      vertex -48.4585 36.4377 0
    endloop
  endfacet
  facet normal 0 0 -1
    outer loop
      vertex -48.4368 36.416 0
      vertex -48.8244 36.082 0
      vertex -48.5137 36.3617 0
    endloop
  endfacet
  facet normal 0 0 -1
    outer loop
      vertex -46.0172 28.3637 0
      vertex -49.1865 35.8729 0
      vertex -48.8244 36.082 0
    endloop
  endfacet
  facet normal 0 0 -1
    outer loop
      vertex -46.0172 28.3637 0
      vertex -49.5842 35.7437 0
      vertex -49.1865 35.8729 0
    endloop
  endfacet
  facet normal 0 0 -1
    outer loop
      vertex -48.5 27.2583 0
      vertex -50 35.7 0
      vertex -49.5842 35.7437 0
    endloop
  endfacet
  facet normal 0 0 -1
    outer loop
      vertex -50.6987 25.6609 0
      vertex -50 35.7 0
      vertex -48.5 27.2583 0
    endloop
  endfacet
  facet normal 0 0 -1
    outer loop
      vertex -58 35.7 0
      vertex -50.6987 25.6609 0
      vertex -52.5172 23.6412 0
    endloop
  endfacet
  facet normal 0 0 -1
    outer loop
      vertex -63 25 0
      vertex -52.5172 23.6412 0
      vertex -53.8761 21.2876 0
    endloop
  endfacet
  facet normal 0 0 -1
    outer loop
      vertex -63 25 0
      vertex -53.8761 21.2876 0
      vertex -54.7159 18.7029 0
    endloop
  endfacet
  facet normal 0 0 -1
    outer loop
      vertex -50.6987 25.6609 0
      vertex -58 35.7 0
      vertex -50 35.7 0
    endloop
  endfacet
  facet normal 0 0 -1
    outer loop
      vertex -63 25 0
      vertex -54.7159 18.7029 0
      vertex -55 16 0
    endloop
  endfacet
  facet normal 0 0 -1
    outer loop
      vertex -81.489 32 0
      vertex -78.5 47 0
      vertex -78.5 32 0
    endloop
  endfacet
  facet normal 0 -0 -1
    outer loop
      vertex -81.4021 48.618 0
      vertex -78.5 47 0
      vertex -81.489 48.2091 0
    endloop
  endfacet
  facet normal 0 0 -1
    outer loop
      vertex -78.5 47 0
      vertex -79.9158 49.9563 0
      vertex -79.5 50 0
    endloop
  endfacet
  facet normal 0 0 -1
    outer loop
      vertex -78.5 47 0
      vertex -80.3135 49.8271 0
      vertex -79.9158 49.9563 0
    endloop
  endfacet
  facet normal 0 0 -1
    outer loop
      vertex -78.5 47 0
      vertex -80.6756 49.618 0
      vertex -80.3135 49.8271 0
    endloop
  endfacet
  facet normal 0 0 -1
    outer loop
      vertex -78.5 47 0
      vertex -80.9863 49.3383 0
      vertex -80.6756 49.618 0
    endloop
  endfacet
  facet normal 0 0 -1
    outer loop
      vertex -78.5 47 0
      vertex -81.232 49 0
      vertex -80.9863 49.3383 0
    endloop
  endfacet
  facet normal -0 0 -1
    outer loop
      vertex -78.5 47 0
      vertex -81.489 32 0
      vertex -81.489 48.2091 0
    endloop
  endfacet
  facet normal 0 0 -1
    outer loop
      vertex -78.5 47 0
      vertex -81.4021 48.618 0
      vertex -81.232 49 0
    endloop
  endfacet
  facet normal 0 0 -1
    outer loop
      vertex -51.6188 -0.707107 0
      vertex -52.5172 8.35879 0
      vertex -50.6987 6.33912 0
    endloop
  endfacet
  facet normal 0 0 -1
    outer loop
      vertex -62.9325 10.6066 0
      vertex -52.5172 8.35879 0
      vertex -51.6188 -0.707107 0
    endloop
  endfacet
  facet normal 0 0 -1
    outer loop
      vertex -52.5172 8.35879 0
      vertex -62.9325 10.6066 0
      vertex -53.8761 10.7124 0
    endloop
  endfacet
  facet normal 0 0 -1
    outer loop
      vertex -62.9325 10.6066 0
      vertex -55 16 0
      vertex -54.7159 13.2971 0
    endloop
  endfacet
  facet normal 0 0 -1
    outer loop
      vertex -52.5172 23.6412 0
      vertex -63 25 0
      vertex -58 35.7 0
    endloop
  endfacet
  facet normal -0 0 -1
    outer loop
      vertex -58 35.7 0
      vertex -63 25 0
      vertex -58.4158 35.7437 0
    endloop
  endfacet
  facet normal -0 0 -1
    outer loop
      vertex -58.4158 35.7437 0
      vertex -63 25 0
      vertex -58.8135 35.8729 0
    endloop
  endfacet
  facet normal -0 0 -1
    outer loop
      vertex -58.8135 35.8729 0
      vertex -63 25 0
      vertex -59.1756 36.082 0
    endloop
  endfacet
  facet normal -0 0 -1
    outer loop
      vertex -59.1756 36.082 0
      vertex -63 25 0
      vertex -59.4863 36.3617 0
    endloop
  endfacet
  facet normal -0 0 -1
    outer loop
      vertex -59.4863 36.3617 0
      vertex -63 25 0
      vertex -59.732 36.7 0
    endloop
  endfacet
  facet normal 0 0 -1
    outer loop
      vertex -59.989 37.4909 0
      vertex -60.011 43.2266 0
      vertex -59.989 43.2485 0
    endloop
  endfacet
  facet normal 0 0 -1
    outer loop
      vertex -63 47 0
      vertex -60.011 48.2091 0
      vertex -60.011 43.2266 0
    endloop
  endfacet
  facet normal 0 0 -1
    outer loop
      vertex -63 47 0
      vertex -60.011 43.2266 0
      vertex -59.989 37.4909 0
    endloop
  endfacet
  facet normal -0 0 -1
    outer loop
      vertex -60.011 48.2091 0
      vertex -63 47 0
      vertex -60.0979 48.618 0
    endloop
  endfacet
  facet normal -0 0 -1
    outer loop
      vertex -60.0979 48.618 0
      vertex -63 47 0
      vertex -60.2679 49 0
    endloop
  endfacet
  facet normal -0 0 -1
    outer loop
      vertex -60.2679 49 0
      vertex -63 47 0
      vertex -60.5137 49.3383 0
    endloop
  endfacet
  facet normal -0 0 -1
    outer loop
      vertex -60.5137 49.3383 0
      vertex -63 47 0
      vertex -60.8244 49.618 0
    endloop
  endfacet
  facet normal -0 0 -1
    outer loop
      vertex -60.8244 49.618 0
      vertex -63 47 0
      vertex -61.1865 49.8271 0
    endloop
  endfacet
  facet normal -0 0 -1
    outer loop
      vertex -61.1865 49.8271 0
      vertex -63 47 0
      vertex -61.5842 49.9563 0
    endloop
  endfacet
  facet normal -0 0 -1
    outer loop
      vertex -53.8761 10.7124 0
      vertex -62.9325 10.6066 0
      vertex -54.7159 13.2971 0
    endloop
  endfacet
  facet normal -0 0 -1
    outer loop
      vertex -55 16 0
      vertex -62.9325 10.6066 0
      vertex -63 25 0
    endloop
  endfacet
  facet normal -0 0 -1
    outer loop
      vertex -59.732 36.7 0
      vertex -63 25 0
      vertex -59.9021 37.082 0
    endloop
  endfacet
  facet normal -0 0 -1
    outer loop
      vertex -59.9021 37.082 0
      vertex -63 25 0
      vertex -59.989 37.4909 0
    endloop
  endfacet
  facet normal 0 0 -1
    outer loop
      vertex -63 25 0
      vertex -62.9325 10.6066 0
      vertex -63 10.5391 0
    endloop
  endfacet
  facet normal 0 0 -1
    outer loop
      vertex -63 47 0
      vertex -59.989 37.4909 0
      vertex -63 25 0
    endloop
  endfacet
  facet normal -0 0 -1
    outer loop
      vertex -61.5842 49.9563 0
      vertex -63 47 0
      vertex -62 50 0
    endloop
  endfacet
  facet normal 0 0 -1
    outer loop
      vertex -78.5 47 0
      vertex -62 50 0
      vertex -63 47 0
    endloop
  endfacet
  facet normal -0 0 -1
    outer loop
      vertex -62 50 0
      vertex -78.5 47 0
      vertex -79.5 50 0
    endloop
  endfacet
  facet normal -0.707107 0.707107 0
    outer loop
      vertex -60.011 43.2266 0
      vertex -59.989 43.2485 10
      vertex -59.989 43.2485 0
    endloop
  endfacet
  facet normal -0.707107 0.707107 0
    outer loop
      vertex -59.989 43.2485 10
      vertex -60.011 43.2266 0
      vertex -60.011 43.2266 10
    endloop
  endfacet
  facet normal -0.104529 0.994522 0
    outer loop
      vertex -79.5 50 0
      vertex -79.9158 49.9563 10
      vertex -79.5 50 10
    endloop
  endfacet
  facet normal -0.104529 0.994522 0
    outer loop
      vertex -79.9158 49.9563 10
      vertex -79.5 50 0
      vertex -79.9158 49.9563 0
    endloop
  endfacet
  facet normal -0.978148 0.207908 0
    outer loop
      vertex -81.489 48.2091 0
      vertex -81.4021 48.618 10
      vertex -81.4021 48.618 0
    endloop
  endfacet
  facet normal -0.978148 0.207908 0
    outer loop
      vertex -81.4021 48.618 10
      vertex -81.489 48.2091 0
      vertex -81.489 48.2091 10
    endloop
  endfacet
  facet normal -1 0 0
    outer loop
      vertex -81.489 32 0
      vertex -81.489 48.2091 10
      vertex -81.489 48.2091 0
    endloop
  endfacet
  facet normal -1 -0 0
    outer loop
      vertex -81.489 48.2091 10
      vertex -81.489 32 0
      vertex -81.489 32 10
    endloop
  endfacet
  facet normal 0.104529 0.994522 -0
    outer loop
      vertex -61.5842 49.9563 0
      vertex -62 50 10
      vertex -61.5842 49.9563 10
    endloop
  endfacet
  facet normal 0.104529 0.994522 0
    outer loop
      vertex -62 50 10
      vertex -61.5842 49.9563 0
      vertex -62 50 0
    endloop
  endfacet
  facet normal 0 1 -0
    outer loop
      vertex -62 50 0
      vertex -79.5 50 10
      vertex -62 50 10
    endloop
  endfacet
  facet normal 0 1 0
    outer loop
      vertex -79.5 50 10
      vertex -62 50 0
      vertex -79.5 50 0
    endloop
  endfacet
  facet normal 1 -0 0
    outer loop
      vertex -60.011 43.2266 10
      vertex -60.011 48.2091 0
      vertex -60.011 48.2091 10
    endloop
  endfacet
  facet normal 1 0 0
    outer loop
      vertex -60.011 48.2091 0
      vertex -60.011 43.2266 10
      vertex -60.011 43.2266 0
    endloop
  endfacet
  facet normal -0.669128 0.743147 0
    outer loop
      vertex -80.6756 49.618 0
      vertex -80.9863 49.3383 10
      vertex -80.6756 49.618 10
    endloop
  endfacet
  facet normal -0.669128 0.743147 0
    outer loop
      vertex -80.9863 49.3383 10
      vertex -80.6756 49.618 0
      vertex -80.9863 49.3383 0
    endloop
  endfacet
  facet normal -0.30902 0.951056 0
    outer loop
      vertex -79.9158 49.9563 0
      vertex -80.3135 49.8271 10
      vertex -79.9158 49.9563 10
    endloop
  endfacet
  facet normal -0.30902 0.951056 0
    outer loop
      vertex -80.3135 49.8271 10
      vertex -79.9158 49.9563 0
      vertex -80.3135 49.8271 0
    endloop
  endfacet
  facet normal -0.80902 0.587781 0
    outer loop
      vertex -81.232 49 0
      vertex -80.9863 49.3383 10
      vertex -80.9863 49.3383 0
    endloop
  endfacet
  facet normal -0.80902 0.587781 0
    outer loop
      vertex -80.9863 49.3383 10
      vertex -81.232 49 0
      vertex -81.232 49 10
    endloop
  endfacet
  facet normal 0.669133 0.743143 -0
    outer loop
      vertex -60.5137 49.3383 0
      vertex -60.8244 49.618 10
      vertex -60.5137 49.3383 10
    endloop
  endfacet
  facet normal 0.669133 0.743143 0
    outer loop
      vertex -60.8244 49.618 10
      vertex -60.5137 49.3383 0
      vertex -60.8244 49.618 0
    endloop
  endfacet
  facet normal 0.499998 0.866026 -0
    outer loop
      vertex -60.8244 49.618 0
      vertex -61.1865 49.8271 10
      vertex -60.8244 49.618 10
    endloop
  endfacet
  facet normal 0.499998 0.866026 0
    outer loop
      vertex -61.1865 49.8271 10
      vertex -60.8244 49.618 0
      vertex -61.1865 49.8271 0
    endloop
  endfacet
  facet normal 0.978148 0.207908 0
    outer loop
      vertex -60.011 48.2091 10
      vertex -60.0979 48.618 0
      vertex -60.0979 48.618 10
    endloop
  endfacet
  facet normal 0.978148 0.207908 0
    outer loop
      vertex -60.0979 48.618 0
      vertex -60.011 48.2091 10
      vertex -60.011 48.2091 0
    endloop
  endfacet
  facet normal -0.499998 0.866026 0
    outer loop
      vertex -80.3135 49.8271 0
      vertex -80.6756 49.618 10
      vertex -80.3135 49.8271 10
    endloop
  endfacet
  facet normal -0.499998 0.866026 0
    outer loop
      vertex -80.6756 49.618 10
      vertex -80.3135 49.8271 0
      vertex -80.6756 49.618 0
    endloop
  endfacet
  facet normal -0.913541 0.406746 0
    outer loop
      vertex -81.4021 48.618 0
      vertex -81.232 49 10
      vertex -81.232 49 0
    endloop
  endfacet
  facet normal -0.913541 0.406746 0
    outer loop
      vertex -81.232 49 10
      vertex -81.4021 48.618 0
      vertex -81.4021 48.618 10
    endloop
  endfacet
  facet normal 0.913545 0.406739 0
    outer loop
      vertex -60.0979 48.618 10
      vertex -60.2679 49 0
      vertex -60.2679 49 10
    endloop
  endfacet
  facet normal 0.913545 0.406739 0
    outer loop
      vertex -60.2679 49 0
      vertex -60.0979 48.618 10
      vertex -60.0979 48.618 0
    endloop
  endfacet
  facet normal 0.309017 0.951056 -0
    outer loop
      vertex -61.1865 49.8271 0
      vertex -61.5842 49.9563 10
      vertex -61.1865 49.8271 10
    endloop
  endfacet
  facet normal 0.309017 0.951056 0
    outer loop
      vertex -61.5842 49.9563 10
      vertex -61.1865 49.8271 0
      vertex -61.5842 49.9563 0
    endloop
  endfacet
  facet normal 0.809016 0.587787 0
    outer loop
      vertex -60.2679 49 10
      vertex -60.5137 49.3383 0
      vertex -60.5137 49.3383 10
    endloop
  endfacet
  facet normal 0.809016 0.587787 0
    outer loop
      vertex -60.5137 49.3383 0
      vertex -60.2679 49 10
      vertex -60.2679 49 0
    endloop
  endfacet
  facet normal 0 -1 0
    outer loop
      vertex -81.489 32 0
      vertex -78.5 32 10
      vertex -81.489 32 10
    endloop
  endfacet
  facet normal 0 -1 -0
    outer loop
      vertex -78.5 32 10
      vertex -81.489 32 0
      vertex -78.5 32 0
    endloop
  endfacet
  facet normal -1 0 0
    outer loop
      vertex -63 10.5391 0
      vertex -63 25 10
      vertex -63 25 0
    endloop
  endfacet
  facet normal -1 -0 0
    outer loop
      vertex -63 25 10
      vertex -63 10.5391 0
      vertex -63 10.5391 10
    endloop
  endfacet
  facet normal 0 -1 0
    outer loop
      vertex -78.5 47 0
      vertex -63 47 10
      vertex -78.5 47 10
    endloop
  endfacet
  facet normal 0 -1 -0
    outer loop
      vertex -63 47 10
      vertex -78.5 47 0
      vertex -63 47 0
    endloop
  endfacet
  facet normal -1 0 0
    outer loop
      vertex -63 25 0
      vertex -63 47 10
      vertex -63 47 0
    endloop
  endfacet
  facet normal -1 -0 0
    outer loop
      vertex -63 47 10
      vertex -63 25 0
      vertex -63 25 10
    endloop
  endfacet
  facet normal 1 -0 0
    outer loop
      vertex -78.5 32 10
      vertex -78.5 47 0
      vertex -78.5 47 10
    endloop
  endfacet
  facet normal 1 0 0
    outer loop
      vertex -78.5 47 0
      vertex -78.5 32 10
      vertex -78.5 32 0
    endloop
  endfacet
  facet normal 0.707107 -0.707107 0
    outer loop
      vertex -0.811183 -0.811183 10
      vertex 4.19239 4.19239 0
      vertex 4.19239 4.19239 10
    endloop
  endfacet
  facet normal 0.707107 -0.707107 0
    outer loop
      vertex 4.19239 4.19239 0
      vertex -0.811183 -0.811183 10
      vertex -0.811183 -0.811183 0
    endloop
  endfacet
  facet normal 0.707107 0.707107 0
    outer loop
      vertex 4.19239 5.70711 10
      vertex 2.47487 7.42462 0
      vertex 2.47487 7.42462 10
    endloop
  endfacet
  facet normal 0.707107 0.707107 0
    outer loop
      vertex 2.47487 7.42462 0
      vertex 4.19239 5.70711 10
      vertex 4.19239 5.70711 0
    endloop
  endfacet
  facet normal 0.707107 0.707107 0
    outer loop
      vertex -34.6482 44.5477 10
      vertex -36.7696 46.669 0
      vertex -36.7696 46.669 10
    endloop
  endfacet
  facet normal 0.707107 0.707107 0
    outer loop
      vertex -36.7696 46.669 0
      vertex -34.6482 44.5477 10
      vertex -34.6482 44.5477 0
    endloop
  endfacet
  facet normal 0.707045 0.707169 -0
    outer loop
      vertex -48.4368 36.416 0
      vertex -48.4585 36.4377 10
      vertex -48.4368 36.416 10
    endloop
  endfacet
  facet normal 0.707045 0.707169 0
    outer loop
      vertex -48.4585 36.4377 10
      vertex -48.4368 36.416 0
      vertex -48.4585 36.4377 0
    endloop
  endfacet
  facet normal -0.707107 0.707107 0
    outer loop
      vertex -48.4368 36.416 0
      vertex -38.1838 46.669 10
      vertex -38.1838 46.669 0
    endloop
  endfacet
  facet normal -0.707107 0.707107 0
    outer loop
      vertex -38.1838 46.669 10
      vertex -48.4368 36.416 0
      vertex -48.4368 36.416 10
    endloop
  endfacet
  facet normal 7.02447e-009 -1 0
    outer loop
      vertex -51.7229 -0.811183 0
      vertex -0.811183 -0.811183 10
      vertex -51.7229 -0.811183 10
    endloop
  endfacet
  facet normal 7.02447e-009 -1 0
    outer loop
      vertex -0.811183 -0.811183 10
      vertex -51.7229 -0.811183 0
      vertex -0.811183 -0.811183 0
    endloop
  endfacet
  facet normal -0.309017 0.951056 0
    outer loop
      vertex -49.1865 35.8729 0
      vertex -49.5842 35.7437 10
      vertex -49.1865 35.8729 10
    endloop
  endfacet
  facet normal -0.309017 0.951056 0
    outer loop
      vertex -49.5842 35.7437 10
      vertex -49.1865 35.8729 0
      vertex -49.5842 35.7437 0
    endloop
  endfacet
  facet normal 0 1 -0
    outer loop
      vertex -50 35.7 0
      vertex -58 35.7 10
      vertex -50 35.7 10
    endloop
  endfacet
  facet normal 0 1 0
    outer loop
      vertex -58 35.7 10
      vertex -50 35.7 0
      vertex -58 35.7 0
    endloop
  endfacet
  facet normal -0.104529 0.994522 0
    outer loop
      vertex -49.5842 35.7437 0
      vertex -50 35.7 10
      vertex -49.5842 35.7437 10
    endloop
  endfacet
  facet normal -0.104529 0.994522 0
    outer loop
      vertex -50 35.7 10
      vertex -49.5842 35.7437 0
      vertex -50 35.7 0
    endloop
  endfacet
  facet normal 0.913545 0.406739 0
    outer loop
      vertex -59.732 36.7 10
      vertex -59.9021 37.082 0
      vertex -59.9021 37.082 10
    endloop
  endfacet
  facet normal 0.913545 0.406739 0
    outer loop
      vertex -59.9021 37.082 0
      vertex -59.732 36.7 10
      vertex -59.732 36.7 0
    endloop
  endfacet
  facet normal 1 -0 0
    outer loop
      vertex -59.989 37.4909 10
      vertex -59.989 43.2485 0
      vertex -59.989 43.2485 10
    endloop
  endfacet
  facet normal 1 0 0
    outer loop
      vertex -59.989 43.2485 0
      vertex -59.989 37.4909 10
      vertex -59.989 37.4909 0
    endloop
  endfacet
  facet normal 0.104529 0.994522 -0
    outer loop
      vertex -58 35.7 0
      vertex -58.4158 35.7437 10
      vertex -58 35.7 10
    endloop
  endfacet
  facet normal 0.104529 0.994522 0
    outer loop
      vertex -58.4158 35.7437 10
      vertex -58 35.7 0
      vertex -58.4158 35.7437 0
    endloop
  endfacet
  facet normal -0.80901 0.587795 0
    outer loop
      vertex -48.5137 36.3617 0
      vertex -48.4585 36.4377 10
      vertex -48.4585 36.4377 0
    endloop
  endfacet
  facet normal -0.80901 0.587795 0
    outer loop
      vertex -48.4585 36.4377 10
      vertex -48.5137 36.3617 0
      vertex -48.5137 36.3617 10
    endloop
  endfacet
  facet normal 0.978146 0.207917 0
    outer loop
      vertex -59.9021 37.082 10
      vertex -59.989 37.4909 0
      vertex -59.989 37.4909 10
    endloop
  endfacet
  facet normal 0.978146 0.207917 0
    outer loop
      vertex -59.989 37.4909 0
      vertex -59.9021 37.082 10
      vertex -59.9021 37.082 0
    endloop
  endfacet
  facet normal 0.80902 0.587781 0
    outer loop
      vertex -59.4863 36.3617 10
      vertex -59.732 36.7 0
      vertex -59.732 36.7 10
    endloop
  endfacet
  facet normal 0.80902 0.587781 0
    outer loop
      vertex -59.732 36.7 0
      vertex -59.4863 36.3617 10
      vertex -59.4863 36.3617 0
    endloop
  endfacet
  facet normal -0.499998 0.866026 0
    outer loop
      vertex -48.8244 36.082 0
      vertex -49.1865 35.8729 10
      vertex -48.8244 36.082 10
    endloop
  endfacet
  facet normal -0.499998 0.866026 0
    outer loop
      vertex -49.1865 35.8729 10
      vertex -48.8244 36.082 0
      vertex -49.1865 35.8729 0
    endloop
  endfacet
  facet normal 0.669133 0.743143 -0
    outer loop
      vertex -59.1756 36.082 0
      vertex -59.4863 36.3617 10
      vertex -59.1756 36.082 10
    endloop
  endfacet
  facet normal 0.669133 0.743143 0
    outer loop
      vertex -59.4863 36.3617 10
      vertex -59.1756 36.082 0
      vertex -59.4863 36.3617 0
    endloop
  endfacet
  facet normal 0.499998 0.866026 -0
    outer loop
      vertex -58.8135 35.8729 0
      vertex -59.1756 36.082 10
      vertex -58.8135 35.8729 10
    endloop
  endfacet
  facet normal 0.499998 0.866026 0
    outer loop
      vertex -59.1756 36.082 10
      vertex -58.8135 35.8729 0
      vertex -59.1756 36.082 0
    endloop
  endfacet
  facet normal -0.669133 0.743143 0
    outer loop
      vertex -48.5137 36.3617 0
      vertex -48.8244 36.082 10
      vertex -48.5137 36.3617 10
    endloop
  endfacet
  facet normal -0.669133 0.743143 0
    outer loop
      vertex -48.8244 36.082 10
      vertex -48.5137 36.3617 0
      vertex -48.8244 36.082 0
    endloop
  endfacet
  facet normal 0.309015 0.951057 -0
    outer loop
      vertex -58.4158 35.7437 0
      vertex -58.8135 35.8729 10
      vertex -58.4158 35.7437 10
    endloop
  endfacet
  facet normal 0.309015 0.951057 0
    outer loop
      vertex -58.8135 35.8729 10
      vertex -58.4158 35.7437 0
      vertex -58.8135 35.8729 0
    endloop
  endfacet
  facet normal -0.707107 -0.707107 0
    outer loop
      vertex -62.9325 10.6066 0
      vertex -51.6188 -0.707107 10
      vertex -62.9325 10.6066 10
    endloop
  endfacet
  facet normal -0.707107 -0.707107 -0
    outer loop
      vertex -51.6188 -0.707107 10
      vertex -62.9325 10.6066 0
      vertex -51.6188 -0.707107 0
    endloop
  endfacet
  facet normal 0.707102 -0.707112 0
    outer loop
      vertex -63 10.5391 0
      vertex -62.9325 10.6066 10
      vertex -63 10.5391 10
    endloop
  endfacet
  facet normal 0.707102 -0.707112 0
    outer loop
      vertex -62.9325 10.6066 10
      vertex -63 10.5391 0
      vertex -62.9325 10.6066 0
    endloop
  endfacet
  facet normal -0.707106 0.707108 0
    outer loop
      vertex -51.6188 -0.707107 0
      vertex -51.7229 -0.811183 10
      vertex -51.6188 -0.707107 10
    endloop
  endfacet
  facet normal -0.707106 0.707108 0
    outer loop
      vertex -51.7229 -0.811183 10
      vertex -51.6188 -0.707107 0
      vertex -51.7229 -0.811183 0
    endloop
  endfacet
  facet normal 0.707107 0.707107 -0
    outer loop
      vertex 1.41421 4.24264 1.07107
      vertex -2.47487 8.13173 10
      vertex 1.41421 4.24264 9
    endloop
  endfacet
  facet normal 0.707107 0.707107 -1.1023e-007
    outer loop
      vertex 1.41421 4.24264 9
      vertex -2.47487 8.13173 10
      vertex 2.12132 3.53553 10
    endloop
  endfacet
  facet normal 0.707107 0.707107 0
    outer loop
      vertex -2.47487 8.13173 10
      vertex 1.41421 4.24264 1.07107
      vertex -2.47487 8.13173 0
    endloop
  endfacet
  facet normal 0.707107 0.707107 2.36102e-007
    outer loop
      vertex -2.47487 8.13173 0
      vertex 1.41421 4.24264 1.07107
      vertex 2.17157 3.48528 0
    endloop
  endfacet
  facet normal 0.707107 0.707107 0
    outer loop
      vertex -33.9411 39.598 10
      vertex -37.8302 43.4871 9
      vertex -38.5373 44.1942 10
    endloop
  endfacet
  facet normal 0.707107 0.707107 0
    outer loop
      vertex -33.9411 39.598 10
      vertex -37.8302 43.4871 1.07107
      vertex -37.8302 43.4871 9
    endloop
  endfacet
  facet normal 0.707107 0.707107 -0
    outer loop
      vertex -33.9411 39.598 0
      vertex -37.8302 43.4871 1.07107
      vertex -33.9411 39.598 10
    endloop
  endfacet
  facet normal 0.707106 0.707107 -2.10792e-006
    outer loop
      vertex -37.8302 43.4871 1.07107
      vertex -33.9411 39.598 0
      vertex -38.5876 44.2444 0
    endloop
  endfacet
  facet normal -0.707107 -0.707107 0
    outer loop
      vertex 1.62635 6.57609 0
      vertex 2.68701 5.51543 1.07107
      vertex 1.62635 6.57609 10
    endloop
  endfacet
  facet normal -0.707107 -0.707107 -3.27855e-008
    outer loop
      vertex 2.68701 5.51543 1.07107
      vertex 1.62635 6.57609 0
      vertex 3.44437 4.75807 0
    endloop
  endfacet
  facet normal -0.707107 -0.707107 -0
    outer loop
      vertex 2.68701 5.51543 9
      vertex 1.62635 6.57609 10
      vertex 2.68701 5.51543 1.07107
    endloop
  endfacet
  facet normal -0.707107 -0.707107 1.3487e-007
    outer loop
      vertex 1.62635 6.57609 10
      vertex 2.68701 5.51543 9
      vertex 3.39411 4.80833 10
    endloop
  endfacet
  facet normal -0.707106 -0.707108 -0
    outer loop
      vertex -35.4968 43.6992 10
      vertex -36.5574 44.7599 1.07107
      vertex -35.4968 43.6992 0
    endloop
  endfacet
  facet normal -0.707107 -0.707107 -2.51842e-006
    outer loop
      vertex -35.4968 43.6992 0
      vertex -36.5574 44.7599 1.07107
      vertex -37.3148 45.5172 0
    endloop
  endfacet
  facet normal -0.707107 -0.707107 2.6974e-006
    outer loop
      vertex -36.5574 44.7599 9
      vertex -35.4968 43.6992 10
      vertex -37.2645 45.467 10
    endloop
  endfacet
  facet normal -0.707106 -0.707108 0
    outer loop
      vertex -36.5574 44.7599 1.07107
      vertex -35.4968 43.6992 10
      vertex -36.5574 44.7599 9
    endloop
  endfacet
  facet normal 0.707107 -0.707107 0
    outer loop
      vertex -37.8302 43.4871 9
      vertex -36.5574 44.7599 1.07107
      vertex -36.5574 44.7599 9
    endloop
  endfacet
  facet normal 0.707107 -0.707107 0
    outer loop
      vertex -36.5574 44.7599 1.07107
      vertex -37.8302 43.4871 9
      vertex -37.8302 43.4871 1.07107
    endloop
  endfacet
  facet normal -0.707107 0.707107 0
    outer loop
      vertex 1.41421 4.24264 1.07107
      vertex 2.68701 5.51543 9
      vertex 2.68701 5.51543 1.07107
    endloop
  endfacet
  facet normal -0.707107 0.707107 0
    outer loop
      vertex 2.68701 5.51543 9
      vertex 1.41421 4.24264 1.07107
      vertex 1.41421 4.24264 9
    endloop
  endfacet
  facet normal 0.707107 0.707107 0
    outer loop
      vertex -5.3033 5.3033 10
      vertex -36.7696 36.7696 0
      vertex -36.7696 36.7696 10
    endloop
  endfacet
  facet normal 0.707107 0.707107 0
    outer loop
      vertex -36.7696 36.7696 0
      vertex -5.3033 5.3033 10
      vertex -5.3033 5.3033 0
    endloop
  endfacet
  facet normal 0.707106 -0.707107 0
    outer loop
      vertex -36.7696 36.7696 0
      vertex -33.9411 39.598 10
      vertex -36.7696 36.7696 10
    endloop
  endfacet
  facet normal 0.707106 -0.707107 0
    outer loop
      vertex -33.9411 39.598 10
      vertex -36.7696 36.7696 0
      vertex -33.9411 39.598 0
    endloop
  endfacet
  facet normal -0.707107 0.707107 0
    outer loop
      vertex -5.3033 5.3033 0
      vertex -2.47487 8.13173 10
      vertex -2.47487 8.13173 0
    endloop
  endfacet
  facet normal -0.707107 0.707107 0
    outer loop
      vertex -2.47487 8.13173 10
      vertex -5.3033 5.3033 0
      vertex -5.3033 5.3033 10
    endloop
  endfacet
  facet normal -0.707107 0.707107 0
    outer loop
      vertex 2.47487 7.42462 0
      vertex 1.62635 6.57609 10
      vertex 2.47487 7.42462 10
    endloop
  endfacet
  facet normal -0.707107 0.707107 0
    outer loop
      vertex 1.62635 6.57609 10
      vertex 2.47487 7.42462 0
      vertex 1.62635 6.57609 0
    endloop
  endfacet
  facet normal 0.707105 -0.707108 0
    outer loop
      vertex -35.4968 43.6992 0
      vertex -34.6482 44.5477 10
      vertex -35.4968 43.6992 10
    endloop
  endfacet
  facet normal 0.707105 -0.707108 0
    outer loop
      vertex -34.6482 44.5477 10
      vertex -35.4968 43.6992 0
      vertex -34.6482 44.5477 0
    endloop
  endfacet
  facet normal 1 -0 0
    outer loop
      vertex 4.19239 4.19239 10
      vertex 4.19239 5.70711 0
      vertex 4.19239 5.70711 10
    endloop
  endfacet
  facet normal 1 0 0
    outer loop
      vertex 4.19239 5.70711 0
      vertex 4.19239 4.19239 10
      vertex 4.19239 4.19239 0
    endloop
  endfacet
  facet normal 0 1 -0
    outer loop
      vertex -36.7696 46.669 0
      vertex -38.1838 46.669 10
      vertex -36.7696 46.669 10
    endloop
  endfacet
  facet normal 0 1 0
    outer loop
      vertex -38.1838 46.669 10
      vertex -36.7696 46.669 0
      vertex -38.1838 46.669 0
    endloop
  endfacet
  facet normal -0.5 0.5 0.707107
    outer loop
      vertex 2.68701 5.51543 9
      vertex 2.12132 3.53553 10
      vertex 3.39411 4.80833 10
    endloop
  endfacet
  facet normal -0.5 0.5 0.707107
    outer loop
      vertex 2.12132 3.53553 10
      vertex 2.68701 5.51543 9
      vertex 1.41421 4.24264 9
    endloop
  endfacet
  facet normal 0.5 -0.5 0.707106
    outer loop
      vertex -37.2645 45.467 10
      vertex -37.8302 43.4871 9
      vertex -36.5574 44.7599 9
    endloop
  endfacet
  facet normal 0.499999 -0.5 0.707107
    outer loop
      vertex -37.8302 43.4871 9
      vertex -37.2645 45.467 10
      vertex -38.5373 44.1942 10
    endloop
  endfacet
  facet normal -0.5 0.5 -0.707107
    outer loop
      vertex 2.17157 3.48528 0
      vertex 2.68701 5.51543 1.07107
      vertex 3.44437 4.75807 0
    endloop
  endfacet
  facet normal -0.5 0.5 -0.707107
    outer loop
      vertex 2.68701 5.51543 1.07107
      vertex 2.17157 3.48528 0
      vertex 1.41421 4.24264 1.07107
    endloop
  endfacet
  facet normal 0.5 -0.5 -0.707107
    outer loop
      vertex -37.8302 43.4871 1.07107
      vertex -37.3148 45.5172 0
      vertex -36.5574 44.7599 1.07107
    endloop
  endfacet
  facet normal 0.5 -0.5 -0.707107
    outer loop
      vertex -37.3148 45.5172 0
      vertex -37.8302 43.4871 1.07107
      vertex -38.5876 44.2444 0
    endloop
  endfacet
  facet normal -0.994522 -0.104528 0
    outer loop
      vertex -29 16 0
      vertex -29.2841 18.7029 10
      vertex -29.2841 18.7029 0
    endloop
  endfacet
  facet normal -0.994522 -0.104528 0
    outer loop
      vertex -29.2841 18.7029 10
      vertex -29 16 0
      vertex -29 16 10
    endloop
  endfacet
  facet normal 0.994522 -0.104528 0
    outer loop
      vertex -55 16 10
      vertex -54.7159 18.7029 0
      vertex -54.7159 18.7029 10
    endloop
  endfacet
  facet normal 0.994522 -0.104528 0
    outer loop
      vertex -54.7159 18.7029 0
      vertex -55 16 10
      vertex -55 16 0
    endloop
  endfacet
  facet normal 0 -1 0
    outer loop
      vertex -43.3589 28.9288 0
      vertex -40.6411 28.9288 10
      vertex -43.3589 28.9288 10
    endloop
  endfacet
  facet normal 0 -1 -0
    outer loop
      vertex -40.6411 28.9288 10
      vertex -43.3589 28.9288 0
      vertex -40.6411 28.9288 0
    endloop
  endfacet
  facet normal 0 1 -0
    outer loop
      vertex -40.6411 3.07121 0
      vertex -43.3589 3.07121 10
      vertex -40.6411 3.07121 10
    endloop
  endfacet
  facet normal 0 1 0
    outer loop
      vertex -43.3589 3.07121 10
      vertex -40.6411 3.07121 0
      vertex -43.3589 3.07121 0
    endloop
  endfacet
  facet normal -0.743145 -0.669131 0
    outer loop
      vertex -31.4828 23.6412 0
      vertex -33.3013 25.6609 10
      vertex -33.3013 25.6609 0
    endloop
  endfacet
  facet normal -0.743145 -0.669131 0
    outer loop
      vertex -33.3013 25.6609 10
      vertex -31.4828 23.6412 0
      vertex -31.4828 23.6412 10
    endloop
  endfacet
  facet normal 0.743144 -0.669131 0
    outer loop
      vertex -52.5172 23.6412 10
      vertex -50.6987 25.6609 0
      vertex -50.6987 25.6609 10
    endloop
  endfacet
  facet normal 0.743144 -0.669131 0
    outer loop
      vertex -50.6987 25.6609 0
      vertex -52.5172 23.6412 10
      vertex -52.5172 23.6412 0
    endloop
  endfacet
  facet normal 0.406737 -0.913545 0
    outer loop
      vertex -48.5 27.2583 0
      vertex -46.0172 28.3637 10
      vertex -48.5 27.2583 10
    endloop
  endfacet
  facet normal 0.406737 -0.913545 0
    outer loop
      vertex -46.0172 28.3637 10
      vertex -48.5 27.2583 0
      vertex -46.0172 28.3637 0
    endloop
  endfacet
  facet normal -0.866025 0.5 0
    outer loop
      vertex -31.4828 8.35879 0
      vertex -30.1239 10.7124 10
      vertex -30.1239 10.7124 0
    endloop
  endfacet
  facet normal -0.866025 0.5 0
    outer loop
      vertex -30.1239 10.7124 10
      vertex -31.4828 8.35879 0
      vertex -31.4828 8.35879 10
    endloop
  endfacet
  facet normal -0.866026 -0.5 0
    outer loop
      vertex -30.1239 21.2876 0
      vertex -31.4828 23.6412 10
      vertex -31.4828 23.6412 0
    endloop
  endfacet
  facet normal -0.866026 -0.5 0
    outer loop
      vertex -31.4828 23.6412 10
      vertex -30.1239 21.2876 0
      vertex -30.1239 21.2876 10
    endloop
  endfacet
  facet normal -0.951056 -0.309017 0
    outer loop
      vertex -29.2841 18.7029 0
      vertex -30.1239 21.2876 10
      vertex -30.1239 21.2876 0
    endloop
  endfacet
  facet normal -0.951056 -0.309017 0
    outer loop
      vertex -30.1239 21.2876 10
      vertex -29.2841 18.7029 0
      vertex -29.2841 18.7029 10
    endloop
  endfacet
  facet normal -0.406737 -0.913545 0
    outer loop
      vertex -37.9828 28.3637 0
      vertex -35.5 27.2583 10
      vertex -37.9828 28.3637 10
    endloop
  endfacet
  facet normal -0.406737 -0.913545 -0
    outer loop
      vertex -35.5 27.2583 10
      vertex -37.9828 28.3637 0
      vertex -35.5 27.2583 0
    endloop
  endfacet
  facet normal -0.207911 -0.978148 0
    outer loop
      vertex -40.6411 28.9288 0
      vertex -37.9828 28.3637 10
      vertex -40.6411 28.9288 10
    endloop
  endfacet
  facet normal -0.207911 -0.978148 -0
    outer loop
      vertex -37.9828 28.3637 10
      vertex -40.6411 28.9288 0
      vertex -37.9828 28.3637 0
    endloop
  endfacet
  facet normal -0.587785 -0.809017 0
    outer loop
      vertex -35.5 27.2583 0
      vertex -33.3013 25.6609 10
      vertex -35.5 27.2583 10
    endloop
  endfacet
  facet normal -0.587785 -0.809017 -0
    outer loop
      vertex -33.3013 25.6609 10
      vertex -35.5 27.2583 0
      vertex -33.3013 25.6609 0
    endloop
  endfacet
  facet normal 0.866025 -0.5 0
    outer loop
      vertex -53.8761 21.2876 10
      vertex -52.5172 23.6412 0
      vertex -52.5172 23.6412 10
    endloop
  endfacet
  facet normal 0.866025 -0.5 0
    outer loop
      vertex -52.5172 23.6412 0
      vertex -53.8761 21.2876 10
      vertex -53.8761 21.2876 0
    endloop
  endfacet
  facet normal 0.951056 -0.309017 0
    outer loop
      vertex -54.7159 18.7029 10
      vertex -53.8761 21.2876 0
      vertex -53.8761 21.2876 10
    endloop
  endfacet
  facet normal 0.951056 -0.309017 0
    outer loop
      vertex -53.8761 21.2876 0
      vertex -54.7159 18.7029 10
      vertex -54.7159 18.7029 0
    endloop
  endfacet
  facet normal 0.587786 -0.809017 0
    outer loop
      vertex -50.6987 25.6609 0
      vertex -48.5 27.2583 10
      vertex -50.6987 25.6609 10
    endloop
  endfacet
  facet normal 0.587786 -0.809017 0
    outer loop
      vertex -48.5 27.2583 10
      vertex -50.6987 25.6609 0
      vertex -48.5 27.2583 0
    endloop
  endfacet
  facet normal 0.207911 -0.978148 0
    outer loop
      vertex -46.0172 28.3637 0
      vertex -43.3589 28.9288 10
      vertex -46.0172 28.3637 10
    endloop
  endfacet
  facet normal 0.207911 -0.978148 0
    outer loop
      vertex -43.3589 28.9288 10
      vertex -46.0172 28.3637 0
      vertex -43.3589 28.9288 0
    endloop
  endfacet
  facet normal -0.994522 0.104528 0
    outer loop
      vertex -29.2841 13.2971 0
      vertex -29 16 10
      vertex -29 16 0
    endloop
  endfacet
  facet normal -0.994522 0.104528 0
    outer loop
      vertex -29 16 10
      vertex -29.2841 13.2971 0
      vertex -29.2841 13.2971 10
    endloop
  endfacet
  facet normal -0.207912 0.978148 0
    outer loop
      vertex -37.9828 3.63626 0
      vertex -40.6411 3.07121 10
      vertex -37.9828 3.63626 10
    endloop
  endfacet
  facet normal -0.207912 0.978148 0
    outer loop
      vertex -40.6411 3.07121 10
      vertex -37.9828 3.63626 0
      vertex -40.6411 3.07121 0
    endloop
  endfacet
  facet normal -0.951056 0.309017 0
    outer loop
      vertex -30.1239 10.7124 0
      vertex -29.2841 13.2971 10
      vertex -29.2841 13.2971 0
    endloop
  endfacet
  facet normal -0.951056 0.309017 0
    outer loop
      vertex -29.2841 13.2971 10
      vertex -30.1239 10.7124 0
      vertex -30.1239 10.7124 10
    endloop
  endfacet
  facet normal -0.587785 0.809017 0
    outer loop
      vertex -33.3013 6.33912 0
      vertex -35.5 4.74167 10
      vertex -33.3013 6.33912 10
    endloop
  endfacet
  facet normal -0.587785 0.809017 0
    outer loop
      vertex -35.5 4.74167 10
      vertex -33.3013 6.33912 0
      vertex -35.5 4.74167 0
    endloop
  endfacet
  facet normal -0.406737 0.913545 0
    outer loop
      vertex -35.5 4.74167 0
      vertex -37.9828 3.63626 10
      vertex -35.5 4.74167 10
    endloop
  endfacet
  facet normal -0.406737 0.913545 0
    outer loop
      vertex -37.9828 3.63626 10
      vertex -35.5 4.74167 0
      vertex -37.9828 3.63626 0
    endloop
  endfacet
  facet normal 0.207912 0.978148 -0
    outer loop
      vertex -43.3589 3.07121 0
      vertex -46.0172 3.63626 10
      vertex -43.3589 3.07121 10
    endloop
  endfacet
  facet normal 0.207912 0.978148 0
    outer loop
      vertex -46.0172 3.63626 10
      vertex -43.3589 3.07121 0
      vertex -46.0172 3.63626 0
    endloop
  endfacet
  facet normal 0.743145 0.669131 0
    outer loop
      vertex -50.6987 6.33912 10
      vertex -52.5172 8.35879 0
      vertex -52.5172 8.35879 10
    endloop
  endfacet
  facet normal 0.743145 0.669131 0
    outer loop
      vertex -52.5172 8.35879 0
      vertex -50.6987 6.33912 10
      vertex -50.6987 6.33912 0
    endloop
  endfacet
  facet normal 0.866025 0.5 0
    outer loop
      vertex -52.5172 8.35879 10
      vertex -53.8761 10.7124 0
      vertex -53.8761 10.7124 10
    endloop
  endfacet
  facet normal 0.866025 0.5 0
    outer loop
      vertex -53.8761 10.7124 0
      vertex -52.5172 8.35879 10
      vertex -52.5172 8.35879 0
    endloop
  endfacet
  facet normal 0.951056 0.309017 0
    outer loop
      vertex -53.8761 10.7124 10
      vertex -54.7159 13.2971 0
      vertex -54.7159 13.2971 10
    endloop
  endfacet
  facet normal 0.951056 0.309017 0
    outer loop
      vertex -54.7159 13.2971 0
      vertex -53.8761 10.7124 10
      vertex -53.8761 10.7124 0
    endloop
  endfacet
  facet normal 0.994522 0.104528 0
    outer loop
      vertex -54.7159 13.2971 10
      vertex -55 16 0
      vertex -55 16 10
    endloop
  endfacet
  facet normal 0.994522 0.104528 0
    outer loop
      vertex -55 16 0
      vertex -54.7159 13.2971 10
      vertex -54.7159 13.2971 0
    endloop
  endfacet
  facet normal -0.743145 0.66913 0
    outer loop
      vertex -33.3013 6.33912 0
      vertex -31.4828 8.35879 10
      vertex -31.4828 8.35879 0
    endloop
  endfacet
  facet normal -0.743145 0.66913 0
    outer loop
      vertex -31.4828 8.35879 10
      vertex -33.3013 6.33912 0
      vertex -33.3013 6.33912 10
    endloop
  endfacet
  facet normal 0.406737 0.913545 -0
    outer loop
      vertex -46.0172 3.63626 0
      vertex -48.5 4.74167 10
      vertex -46.0172 3.63626 10
    endloop
  endfacet
  facet normal 0.406737 0.913545 0
    outer loop
      vertex -48.5 4.74167 10
      vertex -46.0172 3.63626 0
      vertex -48.5 4.74167 0
    endloop
  endfacet
  facet normal 0.587786 0.809017 -0
    outer loop
      vertex -48.5 4.74167 0
      vertex -50.6987 6.33912 10
      vertex -48.5 4.74167 10
    endloop
  endfacet
  facet normal 0.587786 0.809017 0
    outer loop
      vertex -50.6987 6.33912 10
      vertex -48.5 4.74167 0
      vertex -50.6987 6.33912 0
    endloop
  endfacet
  facet normal -0.994522 -0.104528 0
    outer loop
      vertex -15 7 0
      vertex -15.1093 8.03956 10
      vertex -15.1093 8.03956 0
    endloop
  endfacet
  facet normal -0.994522 -0.104528 0
    outer loop
      vertex -15.1093 8.03956 10
      vertex -15 7 0
      vertex -15 7 10
    endloop
  endfacet
  facet normal 0.994522 -0.104529 0
    outer loop
      vertex -25 7 10
      vertex -24.8907 8.03956 0
      vertex -24.8907 8.03956 10
    endloop
  endfacet
  facet normal 0.994522 -0.104529 0
    outer loop
      vertex -24.8907 8.03956 0
      vertex -25 7 10
      vertex -25 7 0
    endloop
  endfacet
  facet normal 0 -1 0
    outer loop
      vertex -20.5226 11.9726 0
      vertex -19.4774 11.9726 10
      vertex -20.5226 11.9726 10
    endloop
  endfacet
  facet normal 0 -1 -0
    outer loop
      vertex -19.4774 11.9726 10
      vertex -20.5226 11.9726 0
      vertex -19.4774 11.9726 0
    endloop
  endfacet
  facet normal 0 1 -0
    outer loop
      vertex -19.4774 2.02739 0
      vertex -20.5226 2.02739 10
      vertex -19.4774 2.02739 10
    endloop
  endfacet
  facet normal 0 1 0
    outer loop
      vertex -20.5226 2.02739 10
      vertex -19.4774 2.02739 0
      vertex -20.5226 2.02739 0
    endloop
  endfacet
  facet normal -0.743145 -0.669131 0
    outer loop
      vertex -15.9549 9.93893 0
      vertex -16.6543 10.7157 10
      vertex -16.6543 10.7157 0
    endloop
  endfacet
  facet normal -0.743145 -0.669131 0
    outer loop
      vertex -16.6543 10.7157 10
      vertex -15.9549 9.93893 0
      vertex -15.9549 9.93893 10
    endloop
  endfacet
  facet normal 0.587785 -0.809017 0
    outer loop
      vertex -23.3457 10.7157 0
      vertex -22.5 11.3301 10
      vertex -23.3457 10.7157 10
    endloop
  endfacet
  facet normal 0.587785 -0.809017 0
    outer loop
      vertex -22.5 11.3301 10
      vertex -23.3457 10.7157 0
      vertex -22.5 11.3301 0
    endloop
  endfacet
  facet normal 0.207911 -0.978148 0
    outer loop
      vertex -21.5451 11.7553 0
      vertex -20.5226 11.9726 10
      vertex -21.5451 11.7553 10
    endloop
  endfacet
  facet normal 0.207911 -0.978148 0
    outer loop
      vertex -20.5226 11.9726 10
      vertex -21.5451 11.7553 0
      vertex -20.5226 11.9726 0
    endloop
  endfacet
  facet normal -0.866025 0.5 0
    outer loop
      vertex -15.9549 4.06107 0
      vertex -15.4323 4.96632 10
      vertex -15.4323 4.96632 0
    endloop
  endfacet
  facet normal -0.866025 0.5 0
    outer loop
      vertex -15.4323 4.96632 10
      vertex -15.9549 4.06107 0
      vertex -15.9549 4.06107 10
    endloop
  endfacet
  facet normal -0.866025 -0.5 0
    outer loop
      vertex -15.4323 9.03368 0
      vertex -15.9549 9.93893 10
      vertex -15.9549 9.93893 0
    endloop
  endfacet
  facet normal -0.866025 -0.5 0
    outer loop
      vertex -15.9549 9.93893 10
      vertex -15.4323 9.03368 0
      vertex -15.4323 9.03368 10
    endloop
  endfacet
  facet normal -0.951057 -0.309017 0
    outer loop
      vertex -15.1093 8.03956 0
      vertex -15.4323 9.03368 10
      vertex -15.4323 9.03368 0
    endloop
  endfacet
  facet normal -0.951057 -0.309017 0
    outer loop
      vertex -15.4323 9.03368 10
      vertex -15.1093 8.03956 0
      vertex -15.1093 8.03956 10
    endloop
  endfacet
  facet normal -0.406737 -0.913545 0
    outer loop
      vertex -18.4549 11.7553 0
      vertex -17.5 11.3301 10
      vertex -18.4549 11.7553 10
    endloop
  endfacet
  facet normal -0.406737 -0.913545 -0
    outer loop
      vertex -17.5 11.3301 10
      vertex -18.4549 11.7553 0
      vertex -17.5 11.3301 0
    endloop
  endfacet
  facet normal -0.207911 -0.978148 0
    outer loop
      vertex -19.4774 11.9726 0
      vertex -18.4549 11.7553 10
      vertex -19.4774 11.9726 10
    endloop
  endfacet
  facet normal -0.207911 -0.978148 -0
    outer loop
      vertex -18.4549 11.7553 10
      vertex -19.4774 11.9726 0
      vertex -18.4549 11.7553 0
    endloop
  endfacet
  facet normal -0.587785 -0.809017 0
    outer loop
      vertex -17.5 11.3301 0
      vertex -16.6543 10.7157 10
      vertex -17.5 11.3301 10
    endloop
  endfacet
  facet normal -0.587785 -0.809017 -0
    outer loop
      vertex -16.6543 10.7157 10
      vertex -17.5 11.3301 0
      vertex -16.6543 10.7157 0
    endloop
  endfacet
  facet normal 0.866026 -0.499999 0
    outer loop
      vertex -24.5677 9.03368 10
      vertex -24.0451 9.93893 0
      vertex -24.0451 9.93893 10
    endloop
  endfacet
  facet normal 0.866026 -0.499999 0
    outer loop
      vertex -24.0451 9.93893 0
      vertex -24.5677 9.03368 10
      vertex -24.5677 9.03368 0
    endloop
  endfacet
  facet normal 0.743145 -0.669131 0
    outer loop
      vertex -24.0451 9.93893 10
      vertex -23.3457 10.7157 0
      vertex -23.3457 10.7157 10
    endloop
  endfacet
  facet normal 0.743145 -0.669131 0
    outer loop
      vertex -23.3457 10.7157 0
      vertex -24.0451 9.93893 10
      vertex -24.0451 9.93893 0
    endloop
  endfacet
  facet normal 0.951056 -0.309018 0
    outer loop
      vertex -24.8907 8.03956 10
      vertex -24.5677 9.03368 0
      vertex -24.5677 9.03368 10
    endloop
  endfacet
  facet normal 0.951056 -0.309018 0
    outer loop
      vertex -24.5677 9.03368 0
      vertex -24.8907 8.03956 10
      vertex -24.8907 8.03956 0
    endloop
  endfacet
  facet normal 0.406737 -0.913545 0
    outer loop
      vertex -22.5 11.3301 0
      vertex -21.5451 11.7553 10
      vertex -22.5 11.3301 10
    endloop
  endfacet
  facet normal 0.406737 -0.913545 0
    outer loop
      vertex -21.5451 11.7553 10
      vertex -22.5 11.3301 0
      vertex -21.5451 11.7553 0
    endloop
  endfacet
  facet normal -0.994522 0.104528 0
    outer loop
      vertex -15.1093 5.96044 0
      vertex -15 7 10
      vertex -15 7 0
    endloop
  endfacet
  facet normal -0.994522 0.104528 0
    outer loop
      vertex -15 7 10
      vertex -15.1093 5.96044 0
      vertex -15.1093 5.96044 10
    endloop
  endfacet
  facet normal -0.207911 0.978148 0
    outer loop
      vertex -18.4549 2.24472 0
      vertex -19.4774 2.02739 10
      vertex -18.4549 2.24472 10
    endloop
  endfacet
  facet normal -0.207911 0.978148 0
    outer loop
      vertex -19.4774 2.02739 10
      vertex -18.4549 2.24472 0
      vertex -19.4774 2.02739 0
    endloop
  endfacet
  facet normal -0.587785 0.809017 0
    outer loop
      vertex -16.6543 3.28428 0
      vertex -17.5 2.66987 10
      vertex -16.6543 3.28428 10
    endloop
  endfacet
  facet normal -0.587785 0.809017 0
    outer loop
      vertex -17.5 2.66987 10
      vertex -16.6543 3.28428 0
      vertex -17.5 2.66987 0
    endloop
  endfacet
  facet normal -0.743145 0.669131 0
    outer loop
      vertex -16.6543 3.28428 0
      vertex -15.9549 4.06107 10
      vertex -15.9549 4.06107 0
    endloop
  endfacet
  facet normal -0.743145 0.669131 0
    outer loop
      vertex -15.9549 4.06107 10
      vertex -16.6543 3.28428 0
      vertex -16.6543 3.28428 10
    endloop
  endfacet
  facet normal -0.951057 0.309017 0
    outer loop
      vertex -15.4323 4.96632 0
      vertex -15.1093 5.96044 10
      vertex -15.1093 5.96044 0
    endloop
  endfacet
  facet normal -0.951057 0.309017 0
    outer loop
      vertex -15.1093 5.96044 10
      vertex -15.4323 4.96632 0
      vertex -15.4323 4.96632 10
    endloop
  endfacet
  facet normal 0.866026 0.499999 0
    outer loop
      vertex -24.0451 4.06107 10
      vertex -24.5677 4.96632 0
      vertex -24.5677 4.96632 10
    endloop
  endfacet
  facet normal 0.866026 0.499999 0
    outer loop
      vertex -24.5677 4.96632 0
      vertex -24.0451 4.06107 10
      vertex -24.0451 4.06107 0
    endloop
  endfacet
  facet normal -0.406737 0.913545 0
    outer loop
      vertex -17.5 2.66987 0
      vertex -18.4549 2.24472 10
      vertex -17.5 2.66987 10
    endloop
  endfacet
  facet normal -0.406737 0.913545 0
    outer loop
      vertex -18.4549 2.24472 10
      vertex -17.5 2.66987 0
      vertex -18.4549 2.24472 0
    endloop
  endfacet
  facet normal 0.207911 0.978148 -0
    outer loop
      vertex -20.5226 2.02739 0
      vertex -21.5451 2.24472 10
      vertex -20.5226 2.02739 10
    endloop
  endfacet
  facet normal 0.207911 0.978148 0
    outer loop
      vertex -21.5451 2.24472 10
      vertex -20.5226 2.02739 0
      vertex -21.5451 2.24472 0
    endloop
  endfacet
  facet normal 0.406737 0.913545 -0
    outer loop
      vertex -21.5451 2.24472 0
      vertex -22.5 2.66987 10
      vertex -21.5451 2.24472 10
    endloop
  endfacet
  facet normal 0.406737 0.913545 0
    outer loop
      vertex -22.5 2.66987 10
      vertex -21.5451 2.24472 0
      vertex -22.5 2.66987 0
    endloop
  endfacet
  facet normal 0.743145 0.669131 0
    outer loop
      vertex -23.3457 3.28428 10
      vertex -24.0451 4.06107 0
      vertex -24.0451 4.06107 10
    endloop
  endfacet
  facet normal 0.743145 0.669131 0
    outer loop
      vertex -24.0451 4.06107 0
      vertex -23.3457 3.28428 10
      vertex -23.3457 3.28428 0
    endloop
  endfacet
  facet normal 0.951056 0.309018 0
    outer loop
      vertex -24.5677 4.96632 10
      vertex -24.8907 5.96044 0
      vertex -24.8907 5.96044 10
    endloop
  endfacet
  facet normal 0.951056 0.309018 0
    outer loop
      vertex -24.8907 5.96044 0
      vertex -24.5677 4.96632 10
      vertex -24.5677 4.96632 0
    endloop
  endfacet
  facet normal 0.994522 0.104529 0
    outer loop
      vertex -24.8907 5.96044 10
      vertex -25 7 0
      vertex -25 7 10
    endloop
  endfacet
  facet normal 0.994522 0.104529 0
    outer loop
      vertex -25 7 0
      vertex -24.8907 5.96044 10
      vertex -24.8907 5.96044 0
    endloop
  endfacet
  facet normal 0.587785 0.809017 -0
    outer loop
      vertex -22.5 2.66987 0
      vertex -23.3457 3.28428 10
      vertex -22.5 2.66987 10
    endloop
  endfacet
  facet normal 0.587785 0.809017 0
    outer loop
      vertex -23.3457 3.28428 10
      vertex -22.5 2.66987 0
      vertex -23.3457 3.28428 0
    endloop
  endfacet
endsolid OpenSCAD_Model
